<svg width="20" height="20" viewBox="0 0 20 20" fill="none" xmlns="http://www.w3.org/2000/svg">
<g id="&#208;&#189;&#209;&#131;&#208;&#182;&#208;&#189;&#208;&#176;&#209;&#143; &#208;&#179;&#208;&#176;&#208;&#187;&#208;&#190;&#209;&#135;&#208;&#186;&#208;&#176; 1">
<path id="Vector" d="M18.9085 3.59351C18.7476 3.42586 18.5313 3.33203 18.3062 3.33203C18.0809 3.33203 17.8646 3.42586 17.7037 3.59351L7.49126 14.4519L2.38505 9.02247C2.23538 8.81035 2.00646 8.67759 1.75754 8.65887C1.50861 8.64014 1.26449 8.73695 1.08801 8.9246C0.911725 9.11204 0.820476 9.37182 0.838087 9.63647C0.855896 9.90093 0.980557 10.1445 1.18026 10.3037L6.88888 16.4039C7.04976 16.5715 7.26607 16.6654 7.4914 16.6654C7.71671 16.6654 7.93302 16.5715 8.09392 16.4039L18.9087 4.90501C19.0752 4.73267 19.1693 4.4963 19.1693 4.24929C19.1693 4.00228 19.0752 3.76569 18.9087 3.59335L18.9085 3.59351Z" fill="#F4553F"/>
</g>
</svg>
