<svg width="24" height="13" viewBox="0 0 24 13" fill="none" xmlns="http://www.w3.org/2000/svg">
<path id="Vector" d="M23.8414 6.11535L18.387 0.660882C18.191 0.432089 17.8467 0.405418 17.6179 0.601399C17.3891 0.797333 17.3624 1.14167 17.5584 1.37046C17.5767 1.39179 17.5966 1.41171 17.6179 1.42995L22.1396 5.95715L0.545428 5.95715C0.244214 5.95715 0 6.20136 0 6.50262C0 6.80388 0.244214 7.04805 0.545428 7.04805L22.1396 7.04805L17.6179 11.5698C17.3891 11.7657 17.3624 12.11 17.5584 12.3388C17.7544 12.5676 18.0987 12.5943 18.3275 12.3983C18.3488 12.38 18.3687 12.3602 18.387 12.3388L23.8414 6.88436C24.0529 6.6717 24.0529 6.32811 23.8414 6.11535Z" fill="#292929"/>
</svg>
