<svg width="24" height="24" viewBox="0 0 24 24" fill="none" xmlns="http://www.w3.org/2000/svg">
<path d="M21.4975 2.92797L21.4286 2.86257L21.3598 2.92799L12 11.8197L2.64021 2.92799L2.57133 2.86256L2.50246 2.92799L1.93113 3.47075L1.85481 3.54325L1.93113 3.61575L11.2835 12.5004L1.93113 21.385L1.85481 21.4575L1.93113 21.53L2.50246 22.0727L2.57133 22.1382L2.64021 22.0727L12 13.181L21.3598 22.0727L21.4287 22.1382L21.4976 22.0727L22.0689 21.5297L22.1452 21.4572L22.0689 21.3847L12.7165 12.5001L22.0689 3.61548L22.1452 3.54296L22.0689 3.47046L21.4975 2.92797Z" fill="white" stroke="white" stroke-width="0.2"/>
</svg>
