<svg width="351" height="222" viewBox="0 0 351 222" fill="none" xmlns="http://www.w3.org/2000/svg">
<rect x="133.463" y="70.085" width="224" height="96" rx="12.9328" transform="rotate(15 133.463 70.085)" stroke="#2E2E2E"/>
<path d="M129.844 81.9966C131.764 74.8307 139.129 70.578 146.295 72.4982L337.679 123.779C344.844 125.699 349.097 133.065 347.177 140.231L340.224 166.181L122.89 107.947L129.844 81.9966Z" fill="#2C2C2C"/>
<path d="M181.786 107.748C181.075 107.557 180.467 107.295 179.96 106.96C179.463 106.62 179.084 106.241 178.823 105.823L179.37 105.175C179.662 105.601 180.014 105.956 180.426 106.24C180.841 106.517 181.353 106.737 181.964 106.901C182.752 107.112 183.363 107.135 183.796 106.97C184.23 106.804 184.515 106.466 184.652 105.956C184.786 105.454 184.722 105.044 184.46 104.725C184.207 104.4 183.756 104.151 183.107 103.977L181.044 103.424L181.255 102.636L183.156 103.146C183.774 103.311 184.278 103.318 184.667 103.165C185.057 103.005 185.315 102.693 185.439 102.229C185.563 101.766 185.487 101.356 185.209 101C184.94 100.646 184.461 100.377 183.773 100.193C183.263 100.056 182.764 100.005 182.274 100.039C181.786 100.066 181.315 100.188 180.859 100.406L180.698 99.5676C181.151 99.3326 181.67 99.2026 182.256 99.1776C182.853 99.1468 183.452 99.2122 184.055 99.3737C185.029 99.6346 185.709 100.032 186.096 100.567C186.49 101.103 186.597 101.711 186.414 102.391C186.28 102.893 186.011 103.277 185.609 103.542C185.217 103.801 184.742 103.918 184.186 103.894L184.229 103.731C184.798 103.958 185.204 104.295 185.449 104.741C185.696 105.18 185.743 105.686 185.59 106.257C185.461 106.737 185.234 107.123 184.906 107.416C184.581 107.702 184.157 107.878 183.634 107.945C183.113 108.004 182.497 107.938 181.786 107.748ZM188.837 109.637C188.32 109.499 187.9 109.258 187.578 108.915C187.257 108.564 187.049 108.135 186.953 107.629C186.864 107.125 186.904 106.56 187.072 105.934C187.241 105.3 187.491 104.787 187.819 104.395C188.156 104.005 188.549 103.742 189 103.606C189.451 103.47 189.935 103.471 190.452 103.61C190.978 103.751 191.394 104.007 191.7 104.379C192.016 104.745 192.175 105.173 192.176 105.662L192.037 105.625L192.534 104.279L193.438 104.522C193.355 104.74 193.271 104.961 193.185 105.187C193.11 105.407 193.043 105.625 192.985 105.841L191.786 110.316L190.847 110.064L191.214 108.696L191.341 108.73C191.096 109.153 190.744 109.444 190.288 109.603C189.831 109.763 189.347 109.774 188.837 109.637ZM189.228 108.922C189.784 109.071 190.275 109 190.701 108.708C191.13 108.409 191.442 107.892 191.639 107.158C191.837 106.416 191.825 105.812 191.602 105.347C191.381 104.873 190.992 104.562 190.436 104.413C189.887 104.266 189.395 104.341 188.959 104.638C188.533 104.93 188.221 105.447 188.022 106.189C187.825 106.923 187.838 107.527 188.059 108C188.289 108.468 188.679 108.775 189.228 108.922ZM192.662 112.165L193.264 109.916L193.879 110.081C194.262 109.762 194.59 109.344 194.86 108.828C195.131 108.313 195.367 107.68 195.567 106.931L196.027 105.215L200.119 106.312L198.758 111.389L199.674 111.634L199.072 113.883L198.26 113.665L198.664 112.158L193.865 110.873L193.461 112.379L192.662 112.165ZM194.78 110.335L197.863 111.161L199.031 106.803L196.654 106.166L196.35 107.302C196.186 107.913 195.966 108.487 195.689 109.026C195.422 109.559 195.119 109.995 194.78 110.335ZM202.964 113.422C202.446 113.284 202.026 113.043 201.704 112.7C201.384 112.349 201.176 111.92 201.08 111.414C200.991 110.91 201.031 110.345 201.198 109.719C201.368 109.086 201.617 108.573 201.946 108.18C202.283 107.79 202.676 107.527 203.127 107.391C203.577 107.255 204.061 107.256 204.579 107.395C205.105 107.536 205.52 107.792 205.827 108.164C206.143 108.53 206.301 108.958 206.303 109.447L206.164 109.41L206.661 108.065L207.565 108.307C207.482 108.525 207.397 108.747 207.312 108.972C207.237 109.192 207.17 109.41 207.112 109.627L205.913 114.101L204.974 113.849L205.341 112.481L205.468 112.516C205.222 112.938 204.871 113.229 204.414 113.389C203.957 113.548 203.474 113.559 202.964 113.422ZM203.355 112.707C203.911 112.856 204.402 112.785 204.828 112.493C205.256 112.194 205.569 111.677 205.765 110.943C205.964 110.201 205.952 109.597 205.729 109.132C205.508 108.658 205.119 108.347 204.563 108.198C204.014 108.051 203.522 108.126 203.086 108.424C202.66 108.715 202.348 109.232 202.149 109.974C201.952 110.708 201.964 111.312 202.185 111.785C202.416 112.253 202.806 112.56 203.355 112.707ZM207.806 114.608L209.366 108.789L210.223 109.019L208.897 113.969L208.584 113.885L213.619 109.929L214.408 110.14L212.849 115.959L212.002 115.732L213.332 110.771L213.645 110.855L208.606 114.822L207.806 114.608ZM212.027 108.919C211.71 108.834 211.431 108.701 211.189 108.52C210.948 108.34 210.756 108.114 210.613 107.844C210.472 107.566 210.395 107.251 210.381 106.9L210.993 106.84C211.033 107.249 211.149 107.574 211.341 107.815C211.541 108.059 211.826 108.231 212.197 108.331C212.568 108.43 212.895 108.431 213.178 108.332C213.461 108.234 213.744 108.012 214.027 107.666L214.508 108.006C214.166 108.477 213.782 108.78 213.357 108.915C212.942 109.044 212.498 109.045 212.027 108.919ZM215.94 116.788L217.297 111.722L215.188 111.157L215.39 110.404L220.559 111.789L220.358 112.542L218.236 111.974L216.879 117.039L215.94 116.788ZM222.555 118.672C221.644 118.428 220.995 117.972 220.611 117.306C220.228 116.632 220.163 115.824 220.416 114.881C220.579 114.27 220.837 113.772 221.189 113.386C221.543 112.992 221.962 112.728 222.445 112.592C222.931 112.449 223.444 112.45 223.985 112.595C224.518 112.738 224.936 112.97 225.239 113.291C225.543 113.613 225.735 114.008 225.816 114.477C225.9 114.938 225.866 115.451 225.715 116.015L225.622 116.363L221.113 115.155L221.271 114.564L225.166 115.607L224.928 115.705C225.094 115.087 225.084 114.567 224.899 114.144C224.714 113.722 224.347 113.437 223.799 113.29C223.219 113.135 222.712 113.219 222.278 113.541C221.846 113.856 221.537 114.357 221.353 115.045L221.325 115.15C221.131 115.876 221.16 116.476 221.414 116.95C221.678 117.418 222.134 117.739 222.784 117.913C223.131 118.006 223.469 118.043 223.798 118.023C224.136 117.998 224.476 117.903 224.818 117.738L224.966 118.485C224.645 118.664 224.268 118.771 223.837 118.804C223.415 118.832 222.988 118.788 222.555 118.672ZM229.393 120.392L230.952 114.573L231.891 114.825L231.238 117.259L234.438 118.116L235.09 115.682L236.029 115.934L234.47 121.752L233.531 121.501L234.236 118.87L231.037 118.013L230.331 120.644L229.393 120.392ZM238.552 122.958C238.035 122.82 237.615 122.579 237.293 122.236C236.972 121.885 236.764 121.456 236.668 120.95C236.579 120.446 236.619 119.881 236.787 119.255C236.956 118.621 237.206 118.109 237.534 117.716C237.871 117.326 238.264 117.063 238.715 116.927C239.166 116.791 239.65 116.792 240.167 116.931C240.693 117.072 241.109 117.328 241.415 117.7C241.731 118.066 241.89 118.494 241.891 118.983L241.752 118.946L242.249 117.601L243.153 117.843C243.07 118.061 242.986 118.282 242.9 118.508C242.825 118.728 242.758 118.946 242.7 119.163L241.501 123.637L240.562 123.385L240.929 122.017L241.056 122.052C240.811 122.474 240.459 122.765 240.003 122.924C239.546 123.084 239.062 123.095 238.552 122.958ZM238.943 122.243C239.499 122.392 239.99 122.321 240.416 122.029C240.845 121.73 241.157 121.213 241.354 120.479C241.552 119.737 241.54 119.133 241.317 118.668C241.096 118.194 240.707 117.883 240.151 117.734C239.602 117.587 239.11 117.662 238.674 117.96C238.248 118.251 237.936 118.768 237.737 119.51C237.54 120.244 237.553 120.848 237.774 121.321C238.004 121.789 238.394 122.096 238.943 122.243ZM243.395 124.144L244.954 118.325L245.742 118.536L246.875 123.027L250.112 119.707L250.9 119.919L249.341 125.737L248.506 125.514L249.786 120.738L250.029 120.803L246.857 124.065L246.382 123.938L245.257 119.512L245.512 119.581L244.229 124.368L243.395 124.144ZM254.216 127.044L255.775 121.225L258.58 121.976C259.253 122.157 259.72 122.423 259.982 122.774C260.253 123.12 260.322 123.545 260.187 124.047C260.088 124.418 259.873 124.696 259.542 124.88C259.22 125.059 258.849 125.117 258.427 125.054L258.464 124.914C258.939 125.058 259.284 125.3 259.5 125.639C259.715 125.979 259.767 126.357 259.655 126.774C259.521 127.276 259.23 127.621 258.782 127.807C258.342 127.996 257.786 128 257.114 127.82L254.216 127.044ZM255.279 126.645L257.238 127.17C257.648 127.28 257.984 127.279 258.246 127.167C258.517 127.049 258.697 126.828 258.784 126.503C258.871 126.179 258.825 125.901 258.646 125.671C258.475 125.443 258.185 125.275 257.776 125.165L255.817 124.64L255.279 126.645ZM255.988 124.002L257.842 124.499C258.221 124.601 258.537 124.595 258.791 124.48C259.046 124.366 259.213 124.159 259.294 123.857C259.375 123.556 259.332 123.296 259.167 123.078C259.004 122.852 258.733 122.688 258.355 122.587L256.5 122.09L255.988 124.002ZM263.086 129.532C262.529 129.383 262.075 129.133 261.722 128.781C261.378 128.424 261.155 127.992 261.051 127.483C260.949 126.968 260.98 126.4 261.146 125.782C261.314 125.156 261.57 124.649 261.914 124.261C262.258 123.873 262.667 123.614 263.141 123.484C263.624 123.349 264.144 123.356 264.701 123.505C265.265 123.656 265.719 123.91 266.062 124.267C266.415 124.618 266.643 125.048 266.747 125.556C266.859 126.067 266.831 126.635 266.664 127.261C266.498 127.879 266.238 128.385 265.884 128.779C265.54 129.167 265.126 129.429 264.642 129.564C264.169 129.694 263.65 129.683 263.086 129.532ZM263.291 128.767C263.847 128.916 264.338 128.845 264.764 128.553C265.192 128.254 265.505 127.737 265.701 127.003C265.9 126.261 265.884 125.656 265.653 125.189C265.432 124.715 265.048 124.405 264.499 124.258C263.95 124.111 263.462 124.187 263.034 124.487C262.608 124.778 262.295 125.295 262.097 126.037C261.9 126.771 261.912 127.375 262.133 127.848C262.356 128.314 262.742 128.62 263.291 128.767ZM267.415 130.58L268.974 124.761L274.016 126.112L272.457 131.931L271.518 131.68L272.878 126.603L269.714 125.755L268.353 130.832L267.415 130.58ZM273.684 134.943L275.553 127.965C275.611 127.749 275.659 127.526 275.696 127.295C275.742 127.06 275.784 126.826 275.821 126.596L276.725 126.838L276.483 128.252L276.344 128.215C276.59 127.792 276.937 127.5 277.386 127.338C277.837 127.169 278.325 127.155 278.851 127.296C279.376 127.437 279.796 127.678 280.111 128.019C280.433 128.362 280.642 128.787 280.739 129.293C280.835 129.799 280.798 130.369 280.628 131.002C280.461 131.628 280.208 132.136 279.872 132.527C279.543 132.919 279.153 133.187 278.7 133.331C278.249 133.467 277.761 133.464 277.236 133.324C276.718 133.185 276.305 132.933 275.997 132.569C275.689 132.205 275.534 131.778 275.532 131.289L275.66 131.323L274.623 135.195L273.684 134.943ZM277.255 132.509C277.812 132.658 278.303 132.587 278.729 132.295C279.165 131.998 279.481 131.482 279.678 130.748C279.877 130.006 279.861 129.401 279.63 128.934C279.409 128.46 279.02 128.149 278.464 128C277.915 127.853 277.423 127.928 276.987 128.225C276.561 128.517 276.249 129.034 276.05 129.776C275.853 130.51 275.865 131.113 276.086 131.587C276.317 132.054 276.707 132.362 277.255 132.509ZM283.789 135.079C283.233 134.93 282.778 134.68 282.425 134.329C282.081 133.972 281.858 133.539 281.754 133.031C281.652 132.515 281.684 131.948 281.849 131.33C282.017 130.704 282.273 130.197 282.617 129.809C282.961 129.42 283.37 129.161 283.844 129.032C284.328 128.896 284.848 128.903 285.404 129.052C285.968 129.203 286.422 129.457 286.765 129.814C287.118 130.166 287.347 130.595 287.451 131.104C287.562 131.614 287.534 132.182 287.367 132.808C287.201 133.426 286.941 133.932 286.587 134.326C286.243 134.714 285.829 134.976 285.346 135.111C284.872 135.241 284.353 135.231 283.789 135.079ZM283.994 134.314C284.55 134.463 285.042 134.392 285.468 134.101C285.896 133.801 286.208 133.284 286.405 132.55C286.603 131.808 286.587 131.204 286.357 130.736C286.136 130.263 285.751 129.952 285.202 129.805C284.653 129.658 284.165 129.735 283.737 130.034C283.311 130.326 282.999 130.842 282.8 131.584C282.603 132.318 282.615 132.922 282.836 133.395C283.059 133.861 283.445 134.167 283.994 134.314ZM290.582 136.9C290.01 136.746 289.545 136.489 289.186 136.128C288.835 135.769 288.605 135.33 288.495 134.812C288.393 134.296 288.426 133.725 288.594 133.1C288.764 132.466 289.023 131.96 289.373 131.582C289.725 131.195 290.141 130.942 290.62 130.822C291.107 130.704 291.633 130.721 292.197 130.872C292.568 130.972 292.91 131.134 293.222 131.358C293.542 131.585 293.786 131.849 293.954 132.151L293.438 132.733C293.266 132.447 293.056 132.212 292.806 132.029C292.565 131.849 292.313 131.723 292.05 131.653C291.447 131.491 290.929 131.555 290.495 131.845C290.062 132.135 289.747 132.643 289.553 133.369C289.36 134.088 289.377 134.688 289.604 135.172C289.831 135.655 290.245 135.977 290.848 136.139C291.103 136.207 291.379 136.227 291.677 136.199C291.982 136.173 292.285 136.076 292.587 135.909L292.746 136.659C292.44 136.843 292.092 136.952 291.701 136.988C291.311 137.024 290.937 136.995 290.582 136.9Z" fill="#4F4F4F"/>
<path d="M151.683 150.151C150.749 149.901 150.004 149.498 149.449 148.941C148.893 148.384 148.532 147.708 148.365 146.912C148.209 146.11 148.26 145.229 148.517 144.269C148.775 143.309 149.17 142.525 149.704 141.917C150.246 141.311 150.897 140.906 151.656 140.702C152.416 140.497 153.263 140.52 154.197 140.77C154.846 140.944 155.4 141.195 155.859 141.522C156.318 141.849 156.69 142.245 156.973 142.71L156.217 143.662C155.897 143.196 155.559 142.832 155.203 142.57C154.855 142.31 154.422 142.11 153.903 141.971C152.917 141.707 152.083 141.808 151.402 142.274C150.721 142.741 150.231 143.532 149.932 144.648C149.633 145.764 149.66 146.698 150.015 147.451C150.371 148.196 151.043 148.7 152.029 148.965C152.548 149.104 153.023 149.148 153.454 149.096C153.894 149.047 154.37 148.896 154.882 148.644L155.061 149.847C154.583 150.108 154.062 150.27 153.498 150.332C152.937 150.385 152.332 150.325 151.683 150.151ZM156.393 151.288L158.145 144.749L159.443 145.096L158.727 147.769L159.855 148.072L162.609 145.945L164.036 146.327L160.734 148.891L160.521 148.389C160.765 148.482 160.964 148.605 161.118 148.758C161.274 148.902 161.413 149.092 161.535 149.328C161.657 149.565 161.767 149.863 161.865 150.224L162.595 152.95L161.194 152.575L160.561 150.264C160.492 150.004 160.413 149.797 160.324 149.644C160.238 149.481 160.123 149.358 159.979 149.273C159.837 149.179 159.653 149.102 159.428 149.042L158.455 148.781L157.69 151.636L156.393 151.288ZM166.375 154.088C165.727 153.914 165.2 153.63 164.796 153.234C164.395 152.83 164.131 152.342 164.006 151.771C163.884 151.191 163.916 150.551 164.104 149.85C164.292 149.149 164.582 148.583 164.976 148.151C165.373 147.71 165.845 147.419 166.392 147.278C166.942 147.129 167.541 147.141 168.19 147.315C168.839 147.489 169.364 147.778 169.766 148.182C170.178 148.58 170.446 149.069 170.569 149.649C170.702 150.223 170.675 150.86 170.488 151.56C170.3 152.261 170.004 152.831 169.599 153.269C169.205 153.701 168.728 153.991 168.17 154.138C167.622 154.279 167.024 154.262 166.375 154.088ZM166.65 153.063C167.221 153.216 167.728 153.139 168.172 152.831C168.616 152.524 168.943 151.981 169.151 151.202C169.36 150.424 169.348 149.795 169.114 149.315C168.884 148.827 168.483 148.506 167.912 148.353C167.35 148.202 166.847 148.281 166.403 148.588C165.961 148.887 165.636 149.426 165.427 150.204C165.219 150.983 165.225 151.615 165.448 152.101C165.678 152.59 166.079 152.91 166.65 153.063ZM170.786 155.326L170.623 154.169C170.95 154.127 171.237 154.042 171.485 153.914C171.743 153.779 171.968 153.58 172.159 153.316C172.359 153.054 172.543 152.714 172.711 152.295C172.879 151.877 173.045 151.36 173.209 150.746L173.7 148.917L178.63 150.238L176.878 156.777L175.58 156.429L177.058 150.915L174.632 150.265L174.406 151.108C174.141 152.094 173.845 152.891 173.515 153.498C173.186 154.105 172.797 154.553 172.349 154.84C171.912 155.122 171.391 155.284 170.786 155.326ZM178.846 157.304L180.598 150.765L181.896 151.113L181.284 153.396L183.139 153.893C183.996 154.123 184.591 154.477 184.927 154.956C185.264 155.427 185.341 156.004 185.158 156.687C185.04 157.128 184.837 157.487 184.55 157.762C184.266 158.029 183.905 158.197 183.47 158.265C183.043 158.336 182.553 158.298 181.999 158.149L178.846 157.304ZM180.383 156.757L182.096 157.216C182.581 157.346 182.979 157.346 183.292 157.216C183.607 157.078 183.821 156.797 183.935 156.373C184.049 155.95 184.001 155.608 183.793 155.348C183.595 155.082 183.25 154.883 182.757 154.751L181.044 154.292L180.383 156.757ZM186.056 159.236L187.808 152.697L189.106 153.045L188.389 155.717L189.518 156.02L192.272 153.893L193.699 154.275L190.397 156.84L190.184 156.337C190.428 156.431 190.627 156.553 190.781 156.706C190.937 156.85 191.076 157.04 191.198 157.277C191.32 157.513 191.43 157.812 191.528 158.172L192.258 160.898L190.857 160.523L190.224 158.212C190.155 157.952 190.076 157.745 189.987 157.592C189.901 157.43 189.785 157.306 189.641 157.221C189.5 157.127 189.316 157.051 189.091 156.99L188.118 156.729L187.353 159.584L186.056 159.236ZM196.038 162.036C195.389 161.862 194.863 161.578 194.459 161.182C194.058 160.778 193.794 160.29 193.669 159.719C193.546 159.139 193.579 158.499 193.767 157.798C193.954 157.097 194.245 156.531 194.639 156.099C195.035 155.658 195.507 155.367 196.055 155.227C196.605 155.077 197.204 155.089 197.853 155.263C198.502 155.437 199.027 155.726 199.429 156.13C199.841 156.528 200.109 157.017 200.231 157.597C200.365 158.171 200.338 158.808 200.15 159.509C199.963 160.209 199.666 160.779 199.261 161.217C198.868 161.649 198.391 161.939 197.833 162.086C197.285 162.227 196.687 162.21 196.038 162.036ZM196.313 161.011C196.884 161.164 197.391 161.087 197.835 160.779C198.279 160.472 198.605 159.929 198.814 159.15C199.023 158.372 199.01 157.743 198.777 157.263C198.547 156.775 198.146 156.454 197.575 156.301C197.013 156.151 196.51 156.229 196.066 156.537C195.624 156.835 195.299 157.374 195.09 158.153C194.882 158.931 194.888 159.563 195.11 160.049C195.341 160.538 195.742 160.858 196.313 161.011ZM203.252 165.652L203.975 162.953L204.702 163.148C205.103 162.792 205.446 162.341 205.731 161.797C206.016 161.252 206.269 160.569 206.489 159.747L207 157.839L211.788 159.122L210.307 164.65L211.358 164.931L210.635 167.63L209.506 167.328L209.958 165.641L204.833 164.268L204.381 165.954L203.252 165.652ZM205.905 163.484L209.071 164.332L210.284 159.804L207.858 159.154L207.549 160.309C207.379 160.94 207.149 161.541 206.857 162.112C206.576 162.676 206.258 163.134 205.905 163.484ZM212.069 166.387L211.906 165.231C212.232 165.189 212.519 165.103 212.767 164.975C213.025 164.84 213.25 164.641 213.442 164.377C213.641 164.115 213.825 163.775 213.993 163.357C214.161 162.938 214.327 162.422 214.492 161.808L214.982 159.978L219.912 161.299L218.16 167.839L216.863 167.491L218.34 161.977L215.914 161.326L215.688 162.17C215.424 163.156 215.127 163.953 214.797 164.56C214.468 165.167 214.079 165.614 213.631 165.902C213.194 166.184 212.673 166.345 212.069 166.387ZM220.128 168.366L221.88 161.827L223.074 162.146L221.659 167.427L221.296 167.33L226.655 163.106L227.745 163.398L225.993 169.937L224.812 169.621L226.231 164.327L226.607 164.428L221.218 168.658L220.128 168.366ZM229.36 170.84L230.831 165.351L228.521 164.732L228.803 163.681L234.733 165.27L234.451 166.321L232.128 165.699L230.658 171.187L229.36 170.84ZM236.878 172.979C236.221 172.803 235.682 172.515 235.26 172.115C234.85 171.708 234.579 171.214 234.448 170.632C234.328 170.043 234.362 169.394 234.552 168.685C234.74 167.984 235.035 167.419 235.438 166.989C235.841 166.559 236.319 166.279 236.873 166.15C237.429 166.011 238.036 166.03 238.693 166.206C239.117 166.32 239.508 166.504 239.867 166.757C240.228 167.002 240.503 167.289 240.693 167.618L240.018 168.425C239.838 168.126 239.612 167.88 239.34 167.687C239.069 167.485 238.791 167.345 238.506 167.269C237.883 167.102 237.341 167.17 236.88 167.473C236.419 167.776 236.087 168.303 235.885 169.056C235.681 169.817 235.702 170.448 235.948 170.95C236.194 171.452 236.628 171.786 237.251 171.953C237.528 172.027 237.831 172.053 238.162 172.03C238.495 171.999 238.819 171.895 239.135 171.721L239.316 172.756C238.978 172.944 238.587 173.057 238.141 173.095C237.706 173.127 237.285 173.088 236.878 172.979ZM240.085 173.713L241.583 172.224C241.824 171.982 242.093 171.809 242.39 171.703C242.698 171.591 242.987 171.57 243.255 171.642L243.488 171.705L243.44 171.831C242.697 171.632 242.162 171.308 241.837 170.859C241.513 170.411 241.435 169.871 241.604 169.239C241.773 168.608 242.112 168.175 242.62 167.94C243.128 167.705 243.784 167.696 244.588 167.911L247.65 168.732L245.898 175.271L244.691 174.948L245.342 172.521L244.472 172.288C244.144 172.2 243.84 172.207 243.563 172.309C243.294 172.413 243.05 172.579 242.831 172.808L241.538 174.103L240.085 173.713ZM243.956 171.204L245.578 171.639L246.207 169.291L244.585 168.856C244.101 168.726 243.71 168.733 243.412 168.875C243.123 169.02 242.93 169.275 242.832 169.638C242.73 170.018 242.768 170.344 242.946 170.614C243.135 170.878 243.472 171.075 243.956 171.204ZM252.726 177.1L254.196 171.612L251.887 170.993L252.168 169.942L258.098 171.531L257.816 172.582L255.494 171.96L254.023 177.448L252.726 177.1ZM260.399 179.282C259.344 178.999 258.594 178.478 258.148 177.719C257.703 176.96 257.621 176.053 257.904 174.997C258.087 174.314 258.377 173.752 258.773 173.311C259.178 172.873 259.651 172.578 260.192 172.426C260.744 172.268 261.332 172.272 261.955 172.439C262.569 172.604 263.049 172.872 263.395 173.242C263.74 173.613 263.957 174.065 264.046 174.599C264.137 175.124 264.097 175.707 263.926 176.347L263.814 176.762L258.884 175.441L259.085 174.688L263.121 175.769L262.855 175.879C263.029 175.23 263.016 174.689 262.817 174.256C262.629 173.816 262.262 173.523 261.717 173.377C261.112 173.215 260.588 173.301 260.146 173.637C259.706 173.964 259.387 174.496 259.19 175.231L259.156 175.361C258.949 176.13 258.98 176.76 259.248 177.249C259.524 177.74 260.008 178.078 260.7 178.264C261.081 178.366 261.449 178.409 261.806 178.393C262.173 178.371 262.542 178.275 262.912 178.105L263.1 179.115C262.726 179.303 262.302 179.412 261.83 179.443C261.361 179.465 260.884 179.412 260.399 179.282ZM267.414 181.161C266.765 180.988 266.239 180.703 265.835 180.307C265.433 179.903 265.17 179.415 265.045 178.844C264.922 178.264 264.955 177.624 265.143 176.923C265.33 176.222 265.621 175.656 266.015 175.224C266.411 174.783 266.883 174.492 267.431 174.352C267.981 174.202 268.58 174.215 269.229 174.388C269.878 174.562 270.403 174.851 270.804 175.256C271.217 175.653 271.485 176.142 271.607 176.722C271.741 177.296 271.714 177.933 271.526 178.634C271.339 179.334 271.042 179.904 270.637 180.342C270.243 180.775 269.767 181.064 269.209 181.211C268.661 181.352 268.063 181.335 267.414 181.161ZM267.689 180.136C268.26 180.289 268.767 180.212 269.211 179.905C269.655 179.597 269.981 179.054 270.19 178.276C270.398 177.497 270.386 176.868 270.153 176.388C269.922 175.9 269.522 175.579 268.951 175.426C268.388 175.276 267.885 175.354 267.441 175.662C267 175.961 266.675 176.499 266.466 177.278C266.257 178.056 266.264 178.688 266.486 179.174C266.717 179.663 267.118 179.983 267.689 180.136ZM271.57 185.154L273.653 177.382C273.72 177.131 273.776 176.872 273.819 176.606C273.874 176.333 273.924 176.059 273.97 175.784L275.241 176.125L274.975 177.638L274.832 177.6C275.103 177.144 275.484 176.829 275.975 176.655C276.476 176.483 277.016 176.475 277.595 176.63C278.175 176.785 278.644 177.059 279.002 177.452C279.363 177.836 279.593 178.31 279.692 178.875C279.799 179.441 279.758 180.079 279.568 180.788C279.381 181.489 279.097 182.062 278.718 182.508C278.348 182.955 277.911 183.255 277.406 183.408C276.902 183.56 276.36 183.558 275.78 183.403C275.209 183.25 274.749 182.978 274.399 182.588C274.061 182.191 273.887 181.732 273.878 181.211L274.021 181.249L272.881 185.505L271.57 185.154ZM275.731 182.291C276.302 182.444 276.809 182.367 277.253 182.059C277.706 181.754 278.036 181.212 278.245 180.434C278.453 179.655 278.437 179.025 278.195 178.543C277.964 178.055 277.564 177.734 276.993 177.581C276.422 177.428 275.91 177.504 275.457 177.81C275.016 178.108 274.691 178.647 274.482 179.426C274.273 180.204 274.284 180.837 274.515 181.326C274.755 181.816 275.16 182.138 275.731 182.291ZM280.328 184.497L282.08 177.957L283.274 178.277L281.859 183.558L281.496 183.46L286.855 179.237L287.945 179.529L286.193 186.068L285.012 185.752L286.431 180.458L286.807 180.559L281.418 184.789L280.328 184.497ZM287.627 186.452L289.125 184.962C289.366 184.721 289.635 184.547 289.932 184.441C290.24 184.329 290.528 184.309 290.796 184.381L291.03 184.444L290.982 184.57C290.238 184.371 289.704 184.047 289.379 183.598C289.054 183.149 288.976 182.609 289.146 181.978C289.315 181.346 289.653 180.913 290.161 180.679C290.669 180.444 291.325 180.434 292.13 180.65L295.192 181.47L293.44 188.01L292.233 187.686L292.883 185.26L292.014 185.027C291.685 184.939 291.382 184.946 291.104 185.048C290.836 185.152 290.592 185.318 290.373 185.547L289.08 186.842L287.627 186.452ZM291.498 183.943L293.12 184.378L293.749 182.029L292.127 181.595C291.643 181.465 291.252 181.471 290.954 181.614C290.664 181.759 290.471 182.013 290.374 182.377C290.272 182.757 290.31 183.083 290.488 183.353C290.677 183.617 291.013 183.813 291.498 183.943ZM297.204 186.306L297.325 185.852C297.437 185.437 297.62 185.064 297.875 184.734C298.139 184.406 298.534 184.076 299.058 183.744C299.471 183.484 299.776 183.246 299.973 183.03C300.172 182.805 300.308 182.558 300.38 182.29C300.47 181.953 300.415 181.655 300.215 181.398C300.016 181.14 299.699 180.954 299.267 180.838C298.93 180.747 298.588 180.707 298.243 180.716C297.897 180.726 297.559 180.774 297.23 180.862L297.543 179.694C297.879 179.617 298.234 179.588 298.61 179.605C298.996 179.616 299.371 179.67 299.735 179.767C300.228 179.899 300.648 180.095 300.995 180.355C301.345 180.607 301.588 180.913 301.723 181.273C301.867 181.636 301.877 182.047 301.754 182.506C301.68 182.782 301.561 183.038 301.396 183.272C301.231 183.506 301.025 183.724 300.776 183.926C300.527 184.128 300.228 184.326 299.879 184.52C299.347 184.813 298.953 185.088 298.699 185.344C298.454 185.603 298.272 185.883 298.154 186.186L298.008 186.522L297.204 186.306ZM296.149 188.736L296.563 187.192L298.12 187.609L297.706 189.153L296.149 188.736Z" fill="#606060"/>
<rect x="0.5" y="0.5" width="224" height="126" rx="12.9328" fill="#212121" stroke="#474747"/>
<path d="M0 13.4328C0 6.01409 6.01409 0 13.4328 0H211.567C218.986 0 225 6.01409 225 13.4328V40.2985H0V13.4328Z" fill="#3A3A3A"/>
<path d="M56.84 24.8619C56.104 24.8619 55.448 24.7659 54.872 24.5739C54.304 24.3739 53.84 24.1059 53.48 23.7699L53.84 23.0019C54.232 23.3379 54.664 23.5899 55.136 23.7579C55.608 23.9179 56.16 23.9979 56.792 23.9979C57.608 23.9979 58.204 23.8619 58.58 23.5899C58.956 23.3179 59.144 22.9179 59.144 22.3899C59.144 21.8699 58.976 21.4899 58.64 21.2499C58.312 21.0019 57.812 20.8779 57.14 20.8779H55.004V20.0619H56.972C57.612 20.0619 58.1 19.9379 58.436 19.6899C58.772 19.4339 58.94 19.0659 58.94 18.5859C58.94 18.1059 58.76 17.7299 58.4 17.4579C58.048 17.1859 57.516 17.0499 56.804 17.0499C56.276 17.0499 55.78 17.1299 55.316 17.2899C54.852 17.4419 54.428 17.6819 54.044 18.0099L53.672 17.2419C54.048 16.8979 54.516 16.6379 55.076 16.4619C55.644 16.2779 56.24 16.1859 56.864 16.1859C57.872 16.1859 58.632 16.3939 59.144 16.8099C59.664 17.2259 59.924 17.7859 59.924 18.4899C59.924 19.0099 59.764 19.4499 59.444 19.8099C59.132 20.1619 58.704 20.3979 58.16 20.5179V20.3499C58.768 20.4219 59.248 20.6419 59.6 21.0099C59.952 21.3699 60.128 21.8459 60.128 22.4379C60.128 22.9339 60.008 23.3659 59.768 23.7339C59.528 24.0939 59.164 24.3739 58.676 24.5739C58.188 24.7659 57.576 24.8619 56.84 24.8619ZM64.1398 24.8619C63.6038 24.8619 63.1358 24.7379 62.7358 24.4899C62.3358 24.2339 62.0238 23.8739 61.7998 23.4099C61.5838 22.9459 61.4758 22.3899 61.4758 21.7419C61.4758 21.0859 61.5838 20.5259 61.7998 20.0619C62.0238 19.5979 62.3358 19.2419 62.7358 18.9939C63.1358 18.7459 63.6038 18.6219 64.1398 18.6219C64.6838 18.6219 65.1518 18.7619 65.5438 19.0419C65.9438 19.3139 66.2078 19.6859 66.3358 20.1579H66.1918L66.3238 18.7299H67.2598C67.2358 18.9619 67.2118 19.1979 67.1878 19.4379C67.1718 19.6699 67.1638 19.8979 67.1638 20.1219V24.7539H66.1918V23.3379H66.3238C66.1958 23.8099 65.9318 24.1819 65.5318 24.4539C65.1318 24.7259 64.6678 24.8619 64.1398 24.8619ZM64.3318 24.0699C64.9078 24.0699 65.3638 23.8739 65.6998 23.4819C66.0358 23.0819 66.2038 22.5019 66.2038 21.7419C66.2038 20.9739 66.0358 20.3939 65.6998 20.0019C65.3638 19.6019 64.9078 19.4019 64.3318 19.4019C63.7638 19.4019 63.3078 19.6019 62.9638 20.0019C62.6278 20.3939 62.4598 20.9739 62.4598 21.7419C62.4598 22.5019 62.6278 23.0819 62.9638 23.4819C63.3078 23.8739 63.7638 24.0699 64.3318 24.0699ZM68.4881 26.3139V23.9859H69.1241C69.4121 23.5779 69.6201 23.0899 69.7481 22.5219C69.8761 21.9539 69.9401 21.2819 69.9401 20.5059V18.7299H74.1761V23.9859H75.1241V26.3139H74.2841V24.7539H69.3161V26.3139H68.4881ZM70.0601 23.9979H73.2521V19.4859H70.7921V20.6619C70.7921 21.2939 70.7281 21.9059 70.6001 22.4979C70.4801 23.0819 70.3001 23.5819 70.0601 23.9979ZM78.7648 24.8619C78.2288 24.8619 77.7608 24.7379 77.3608 24.4899C76.9608 24.2339 76.6488 23.8739 76.4248 23.4099C76.2088 22.9459 76.1008 22.3899 76.1008 21.7419C76.1008 21.0859 76.2088 20.5259 76.4248 20.0619C76.6488 19.5979 76.9608 19.2419 77.3608 18.9939C77.7608 18.7459 78.2288 18.6219 78.7648 18.6219C79.3088 18.6219 79.7768 18.7619 80.1688 19.0419C80.5688 19.3139 80.8328 19.6859 80.9608 20.1579H80.8168L80.9488 18.7299H81.8848C81.8608 18.9619 81.8368 19.1979 81.8128 19.4379C81.7968 19.6699 81.7888 19.8979 81.7888 20.1219V24.7539H80.8168V23.3379H80.9488C80.8208 23.8099 80.5568 24.1819 80.1568 24.4539C79.7568 24.7259 79.2928 24.8619 78.7648 24.8619ZM78.9568 24.0699C79.5328 24.0699 79.9888 23.8739 80.3248 23.4819C80.6608 23.0819 80.8288 22.5019 80.8288 21.7419C80.8288 20.9739 80.6608 20.3939 80.3248 20.0019C79.9888 19.6019 79.5328 19.4019 78.9568 19.4019C78.3888 19.4019 77.9328 19.6019 77.5888 20.0019C77.2528 20.3939 77.0848 20.9739 77.0848 21.7419C77.0848 22.5019 77.2528 23.0819 77.5888 23.4819C77.9328 23.8739 78.3888 24.0699 78.9568 24.0699ZM83.7491 24.7539V18.7299H84.6371V23.8539H84.3131L88.1531 18.7299H88.9691V24.7539H88.0931V19.6179H88.4171L84.5771 24.7539H83.7491ZM86.3531 18.1659C86.0251 18.1659 85.7211 18.1099 85.4411 17.9979C85.1611 17.8859 84.9171 17.7179 84.7091 17.4939C84.5011 17.2619 84.3451 16.9779 84.2411 16.6419L84.8171 16.4259C84.9611 16.8099 85.1571 17.0939 85.4051 17.2779C85.6611 17.4619 85.9811 17.5539 86.3651 17.5539C86.7491 17.5539 87.0651 17.4699 87.3131 17.3019C87.5611 17.1339 87.7771 16.8459 87.9611 16.4379L88.5131 16.6419C88.3051 17.1859 88.0131 17.5779 87.6371 17.8179C87.2691 18.0499 86.8411 18.1659 86.3531 18.1659ZM92.1698 24.7539V19.5099H89.9858V18.7299H95.3378V19.5099H93.1418V24.7539H92.1698ZM99.0473 24.8619C98.1033 24.8619 97.3593 24.5899 96.8153 24.0459C96.2713 23.4939 95.9993 22.7299 95.9993 21.7539C95.9993 21.1219 96.1193 20.5739 96.3593 20.1099C96.5993 19.6379 96.9353 19.2739 97.3673 19.0179C97.7993 18.7539 98.2953 18.6219 98.8553 18.6219C99.4073 18.6219 99.8713 18.7379 100.247 18.9699C100.623 19.2019 100.911 19.5339 101.111 19.9659C101.311 20.3899 101.411 20.8939 101.411 21.4779V21.8379H96.7433V21.2259H100.775L100.571 21.3819C100.571 20.7419 100.427 20.2419 100.139 19.8819C99.8513 19.5219 99.4233 19.3419 98.8553 19.3419C98.2553 19.3419 97.7873 19.5539 97.4513 19.9779C97.1153 20.3939 96.9473 20.9579 96.9473 21.6699V21.7779C96.9473 22.5299 97.1313 23.1019 97.4993 23.4939C97.8753 23.8779 98.3993 24.0699 99.0713 24.0699C99.4313 24.0699 99.7673 24.0179 100.079 23.9139C100.399 23.8019 100.703 23.6219 100.991 23.3739L101.327 24.0579C101.063 24.3139 100.727 24.5139 100.319 24.6579C99.9193 24.7939 99.4953 24.8619 99.0473 24.8619ZM106.097 24.7539V18.7299H107.069V21.2499H110.381V18.7299H111.353V24.7539H110.381V22.0299H107.069V24.7539H106.097ZM115.609 24.8619C115.073 24.8619 114.605 24.7379 114.205 24.4899C113.805 24.2339 113.493 23.8739 113.269 23.4099C113.053 22.9459 112.945 22.3899 112.945 21.7419C112.945 21.0859 113.053 20.5259 113.269 20.0619C113.493 19.5979 113.805 19.2419 114.205 18.9939C114.605 18.7459 115.073 18.6219 115.609 18.6219C116.153 18.6219 116.621 18.7619 117.013 19.0419C117.413 19.3139 117.677 19.6859 117.805 20.1579H117.661L117.793 18.7299H118.729C118.705 18.9619 118.681 19.1979 118.657 19.4379C118.641 19.6699 118.633 19.8979 118.633 20.1219V24.7539H117.661V23.3379H117.793C117.665 23.8099 117.401 24.1819 117.001 24.4539C116.601 24.7259 116.137 24.8619 115.609 24.8619ZM115.801 24.0699C116.377 24.0699 116.833 23.8739 117.169 23.4819C117.505 23.0819 117.673 22.5019 117.673 21.7419C117.673 20.9739 117.505 20.3939 117.169 20.0019C116.833 19.6019 116.377 19.4019 115.801 19.4019C115.233 19.4019 114.777 19.6019 114.433 20.0019C114.097 20.3939 113.929 20.9739 113.929 21.7419C113.929 22.5019 114.097 23.0819 114.433 23.4819C114.777 23.8739 115.233 24.0699 115.801 24.0699ZM120.593 24.7539V18.7299H121.409L123.665 22.7739L125.933 18.7299H126.749V24.7539H125.885V19.8099H126.137L123.917 23.7819H123.425L121.193 19.7979H121.457V24.7539H120.593ZM131.796 24.7539V18.7299H134.7C135.396 18.7299 135.916 18.8659 136.26 19.1379C136.612 19.4019 136.788 19.7939 136.788 20.3139C136.788 20.6979 136.652 21.0219 136.38 21.2859C136.116 21.5419 135.772 21.6939 135.348 21.7419V21.5979C135.844 21.6139 136.24 21.7579 136.536 22.0299C136.832 22.3019 136.98 22.6539 136.98 23.0859C136.98 23.6059 136.788 24.0139 136.404 24.3099C136.028 24.6059 135.492 24.7539 134.796 24.7539H131.796ZM132.72 24.0939H134.748C135.172 24.0939 135.496 24.0059 135.72 23.8299C135.952 23.6459 136.068 23.3859 136.068 23.0499C136.068 22.7139 135.952 22.4579 135.72 22.2819C135.496 22.1059 135.172 22.0179 134.748 22.0179H132.72V24.0939ZM132.72 21.3579H134.64C135.032 21.3579 135.336 21.2699 135.552 21.0939C135.768 20.9179 135.876 20.6739 135.876 20.3619C135.876 20.0499 135.768 19.8099 135.552 19.6419C135.336 19.4659 135.032 19.3779 134.64 19.3779H132.72V21.3579ZM141.007 24.8619C140.431 24.8619 139.927 24.7379 139.495 24.4899C139.071 24.2339 138.743 23.8739 138.511 23.4099C138.279 22.9379 138.163 22.3819 138.163 21.7419C138.163 21.0939 138.279 20.5379 138.511 20.0739C138.743 19.6099 139.071 19.2539 139.495 19.0059C139.927 18.7499 140.431 18.6219 141.007 18.6219C141.591 18.6219 142.095 18.7499 142.519 19.0059C142.951 19.2539 143.283 19.6099 143.515 20.0739C143.755 20.5379 143.875 21.0939 143.875 21.7419C143.875 22.3819 143.755 22.9379 143.515 23.4099C143.283 23.8739 142.951 24.2339 142.519 24.4899C142.095 24.7379 141.591 24.8619 141.007 24.8619ZM141.007 24.0699C141.583 24.0699 142.039 23.8739 142.375 23.4819C142.711 23.0819 142.879 22.5019 142.879 21.7419C142.879 20.9739 142.707 20.3939 142.363 20.0019C142.027 19.6019 141.575 19.4019 141.007 19.4019C140.439 19.4019 139.987 19.6019 139.651 20.0019C139.315 20.3939 139.147 20.9739 139.147 21.7419C139.147 22.5019 139.315 23.0819 139.651 23.4819C139.987 23.8739 140.439 24.0699 141.007 24.0699ZM145.46 24.7539V18.7299H150.68V24.7539H149.708V19.4979H146.432V24.7539H145.46ZM152.645 27.3459V20.1219C152.645 19.8979 152.633 19.6699 152.609 19.4379C152.593 19.1979 152.573 18.9619 152.549 18.7299H153.485L153.617 20.1579H153.473C153.601 19.6859 153.861 19.3139 154.253 19.0419C154.645 18.7619 155.113 18.6219 155.657 18.6219C156.201 18.6219 156.669 18.7459 157.061 18.9939C157.461 19.2419 157.773 19.5979 157.997 20.0619C158.221 20.5259 158.333 21.0859 158.333 21.7419C158.333 22.3899 158.221 22.9459 157.997 23.4099C157.781 23.8739 157.473 24.2339 157.073 24.4899C156.673 24.7379 156.201 24.8619 155.657 24.8619C155.121 24.8619 154.657 24.7259 154.265 24.4539C153.873 24.1819 153.613 23.8099 153.485 23.3379H153.617V27.3459H152.645ZM155.465 24.0699C156.041 24.0699 156.497 23.8739 156.833 23.4819C157.177 23.0819 157.349 22.5019 157.349 21.7419C157.349 20.9739 157.177 20.3939 156.833 20.0019C156.497 19.6019 156.041 19.4019 155.465 19.4019C154.897 19.4019 154.441 19.6019 154.097 20.0019C153.761 20.3939 153.593 20.9739 153.593 21.7419C153.593 22.5019 153.761 23.0819 154.097 23.4819C154.441 23.8739 154.897 24.0699 155.465 24.0699ZM162.441 24.8619C161.865 24.8619 161.361 24.7379 160.929 24.4899C160.505 24.2339 160.177 23.8739 159.945 23.4099C159.713 22.9379 159.597 22.3819 159.597 21.7419C159.597 21.0939 159.713 20.5379 159.945 20.0739C160.177 19.6099 160.505 19.2539 160.929 19.0059C161.361 18.7499 161.865 18.6219 162.441 18.6219C163.025 18.6219 163.529 18.7499 163.953 19.0059C164.385 19.2539 164.717 19.6099 164.949 20.0739C165.189 20.5379 165.309 21.0939 165.309 21.7419C165.309 22.3819 165.189 22.9379 164.949 23.4099C164.717 23.8739 164.385 24.2339 163.953 24.4899C163.529 24.7379 163.025 24.8619 162.441 24.8619ZM162.441 24.0699C163.017 24.0699 163.473 23.8739 163.809 23.4819C164.145 23.0819 164.313 22.5019 164.313 21.7419C164.313 20.9739 164.141 20.3939 163.797 20.0019C163.461 19.6019 163.009 19.4019 162.441 19.4019C161.873 19.4019 161.421 19.6019 161.085 20.0019C160.749 20.3939 160.581 20.9739 160.581 21.7419C160.581 22.5019 160.749 23.0819 161.085 23.4819C161.421 23.8739 161.873 24.0699 162.441 24.0699ZM169.474 24.8619C168.882 24.8619 168.366 24.7339 167.926 24.4779C167.494 24.2219 167.158 23.8579 166.918 23.3859C166.686 22.9139 166.57 22.3539 166.57 21.7059C166.57 21.0499 166.69 20.4939 166.93 20.0379C167.17 19.5739 167.506 19.2219 167.938 18.9819C168.378 18.7419 168.89 18.6219 169.474 18.6219C169.858 18.6219 170.23 18.6899 170.59 18.8259C170.958 18.9619 171.262 19.1539 171.502 19.4019L171.154 20.0979C170.914 19.8659 170.65 19.6939 170.362 19.5819C170.082 19.4699 169.806 19.4139 169.534 19.4139C168.91 19.4139 168.426 19.6099 168.082 20.0019C167.738 20.3939 167.566 20.9659 167.566 21.7179C167.566 22.4619 167.738 23.0379 168.082 23.4459C168.426 23.8539 168.91 24.0579 169.534 24.0579C169.798 24.0579 170.07 24.0059 170.35 23.9019C170.638 23.7979 170.906 23.6259 171.154 23.3859L171.502 24.0699C171.254 24.3259 170.946 24.5219 170.578 24.6579C170.21 24.7939 169.842 24.8619 169.474 24.8619Z" fill="#9E9E9E"/>
<path d="M49.4135 68V63.997C49.1179 64.1493 48.7508 64.2701 48.312 64.3597C47.8732 64.4403 47.4299 64.4806 46.9821 64.4806C45.7463 64.4806 44.8015 64.1582 44.1478 63.5134C43.503 62.8687 43.1806 61.906 43.1806 60.6254V58.5298H44.2821V60.5448C44.2821 61.5657 44.515 62.3134 44.9806 62.7881C45.4463 63.2627 46.1448 63.5 47.0762 63.5C47.4971 63.5 47.9045 63.4597 48.2985 63.3791C48.6926 63.2896 49.0642 63.1552 49.4135 62.9761V58.5298H50.515V68H49.4135ZM55.8261 68.1209C54.7694 68.1209 53.9365 67.8164 53.3276 67.2075C52.7186 66.5896 52.4141 65.7343 52.4141 64.6418C52.4141 63.9343 52.5485 63.3209 52.8171 62.8015C53.0858 62.2731 53.4619 61.8657 53.9455 61.5791C54.4291 61.2836 54.9843 61.1358 55.6111 61.1358C56.2291 61.1358 56.7485 61.2657 57.1694 61.5254C57.5903 61.7851 57.9126 62.1567 58.1365 62.6403C58.3604 63.1149 58.4723 63.6791 58.4723 64.3328V64.7358H53.247V64.0507H57.7604L57.532 64.2254C57.532 63.509 57.3708 62.9493 57.0485 62.5463C56.7261 62.1433 56.247 61.9418 55.6111 61.9418C54.9395 61.9418 54.4156 62.1791 54.0395 62.6537C53.6634 63.1194 53.4753 63.7507 53.4753 64.5478V64.6687C53.4753 65.5104 53.6813 66.1507 54.0932 66.5896C54.5141 67.0194 55.1007 67.2343 55.8529 67.2343C56.2559 67.2343 56.632 67.1761 56.9813 67.0597C57.3395 66.9343 57.6798 66.7328 58.0022 66.4552L58.3783 67.2209C58.0828 67.5075 57.7067 67.7313 57.25 67.8925C56.8022 68.0448 56.3276 68.1209 55.8261 68.1209ZM60.2685 70.9015V62.8149C60.2685 62.5642 60.255 62.309 60.2282 62.0493C60.2102 61.7806 60.1879 61.5164 60.161 61.2567H61.2088L61.3565 62.8552H61.1953C61.3386 62.3269 61.6297 61.9104 62.0685 61.606C62.5073 61.2925 63.0311 61.1358 63.6401 61.1358C64.2491 61.1358 64.7729 61.2746 65.2117 61.5522C65.6595 61.8299 66.0088 62.2284 66.2595 62.7478C66.5102 63.2672 66.6356 63.894 66.6356 64.6284C66.6356 65.3537 66.5102 65.9761 66.2595 66.4955C66.0177 67.0149 65.6729 67.4179 65.2252 67.7045C64.7774 67.9821 64.2491 68.1209 63.6401 68.1209C63.0401 68.1209 62.5207 67.9687 62.0819 67.6642C61.6431 67.3597 61.352 66.9433 61.2088 66.4149H61.3565V70.9015H60.2685ZM63.4252 67.2343C64.0699 67.2343 64.5804 67.0149 64.9565 66.5761C65.3416 66.1284 65.5341 65.4791 65.5341 64.6284C65.5341 63.7687 65.3416 63.1194 64.9565 62.6806C64.5804 62.2328 64.0699 62.009 63.4252 62.009C62.7894 62.009 62.2789 62.2328 61.8938 62.6806C61.5177 63.1194 61.3297 63.7687 61.3297 64.6284C61.3297 65.4791 61.5177 66.1284 61.8938 66.5761C62.2789 67.0149 62.7894 67.2343 63.4252 67.2343ZM71.4627 68.1209C70.406 68.1209 69.5732 67.8164 68.9642 67.2075C68.3553 66.5896 68.0508 65.7343 68.0508 64.6418C68.0508 63.9343 68.1851 63.3209 68.4538 62.8015C68.7224 62.2731 69.0986 61.8657 69.5821 61.5791C70.0657 61.2836 70.6209 61.1358 71.2478 61.1358C71.8657 61.1358 72.3851 61.2657 72.806 61.5254C73.2269 61.7851 73.5493 62.1567 73.7732 62.6403C73.9971 63.1149 74.109 63.6791 74.109 64.3328V64.7358H68.8836V64.0507H73.3971L73.1687 64.2254C73.1687 63.509 73.0075 62.9493 72.6851 62.5463C72.3627 62.1433 71.8836 61.9418 71.2478 61.9418C70.5762 61.9418 70.0523 62.1791 69.6762 62.6537C69.3 63.1194 69.112 63.7507 69.112 64.5478V64.6687C69.112 65.5104 69.318 66.1507 69.7299 66.5896C70.1508 67.0194 70.7374 67.2343 71.4896 67.2343C71.8926 67.2343 72.2687 67.1761 72.618 67.0597C72.9762 66.9343 73.3165 66.7328 73.6389 66.4552L74.015 67.2209C73.7194 67.5075 73.3433 67.7313 72.8866 67.8925C72.4389 68.0448 71.9642 68.1209 71.4627 68.1209ZM78.0812 68.1209C77.5081 68.1209 76.9663 68.0448 76.4559 67.8925C75.9544 67.7313 75.5424 67.5119 75.22 67.2343L75.5962 66.4687C75.9275 66.7373 76.2992 66.9433 76.7111 67.0866C77.132 67.2209 77.5887 67.2881 78.0812 67.2881C78.7439 67.2881 79.223 67.1851 79.5186 66.9791C79.8141 66.7731 79.9618 66.4821 79.9618 66.106C79.9618 65.7388 79.8365 65.4612 79.5857 65.2731C79.335 65.0761 78.9678 64.9776 78.4842 64.9776H76.8992V64.1716H78.3499C78.7797 64.1716 79.1156 64.0776 79.3574 63.8896C79.6081 63.6925 79.7335 63.4239 79.7335 63.0836C79.7335 62.7343 79.5992 62.4612 79.3305 62.2642C79.0618 62.0582 78.6409 61.9552 78.0678 61.9552C77.6111 61.9552 77.1857 62.0179 76.7917 62.1433C76.4066 62.2597 76.0395 62.4478 75.6902 62.7075L75.3275 61.9687C75.6947 61.6821 76.12 61.4716 76.6036 61.3373C77.0872 61.203 77.6111 61.1358 78.1753 61.1358C79.0171 61.1358 79.6574 61.3015 80.0962 61.6328C80.535 61.9552 80.7544 62.4164 80.7544 63.0164C80.7544 63.4373 80.6111 63.8 80.3245 64.1045C80.038 64.4 79.6574 64.5746 79.1827 64.6284V64.4672C79.72 64.4851 80.1544 64.6463 80.4857 64.9507C80.8171 65.2552 80.9827 65.6537 80.9827 66.1463C80.9827 66.7463 80.7365 67.2254 80.2439 67.5836C79.7603 67.9418 79.0395 68.1209 78.0812 68.1209ZM89.0633 68.1209C88.4006 68.1209 87.823 67.9776 87.3305 67.691C86.8469 67.4045 86.4708 66.997 86.2021 66.4687C85.9424 65.9403 85.8126 65.3134 85.8126 64.5881C85.8126 63.8537 85.9469 63.2313 86.2156 62.7209C86.4842 62.2015 86.8603 61.8075 87.3439 61.5388C87.8365 61.2701 88.4096 61.1358 89.0633 61.1358C89.4932 61.1358 89.9096 61.2119 90.3126 61.3642C90.7245 61.5164 91.0648 61.7313 91.3335 62.009L90.9439 62.7881C90.6753 62.5284 90.3797 62.3358 90.0573 62.2104C89.7439 62.0851 89.435 62.0224 89.1305 62.0224C88.432 62.0224 87.8902 62.2418 87.5051 62.6806C87.12 63.1194 86.9275 63.7597 86.9275 64.6015C86.9275 65.4343 87.12 66.0791 87.5051 66.5358C87.8902 66.9925 88.432 67.2209 89.1305 67.2209C89.426 67.2209 89.7305 67.1627 90.0439 67.0463C90.3663 66.9299 90.6663 66.7373 90.9439 66.4687L91.3335 67.2343C91.0559 67.5209 90.7111 67.7403 90.2991 67.8925C89.8872 68.0448 89.4753 68.1209 89.0633 68.1209ZM92.9573 68V61.2567H94.0453V64.091H95.3215L97.5513 61.2567H98.7468L96.1946 64.5209L95.8991 64.1851C96.1588 64.2119 96.3826 64.2746 96.5707 64.3731C96.7588 64.4716 96.9379 64.6194 97.108 64.8164C97.2871 65.0134 97.4797 65.2866 97.6856 65.6358L99.0826 68H97.914L96.6782 65.9045C96.5259 65.6448 96.3782 65.4478 96.2349 65.3134C96.1006 65.1791 95.9438 65.0851 95.7647 65.0313C95.5946 64.9776 95.3797 64.9507 95.12 64.9507H94.0453V68H92.9573ZM103.006 68.1209C102.361 68.1209 101.797 67.9821 101.314 67.7045C100.839 67.4179 100.472 67.0149 100.212 66.4955C99.9524 65.9672 99.8226 65.3448 99.8226 64.6284C99.8226 63.903 99.9524 63.2806 100.212 62.7612C100.472 62.2418 100.839 61.8433 101.314 61.5657C101.797 61.2791 102.361 61.1358 103.006 61.1358C103.66 61.1358 104.224 61.2791 104.699 61.5657C105.182 61.8433 105.554 62.2418 105.814 62.7612C106.082 63.2806 106.217 63.903 106.217 64.6284C106.217 65.3448 106.082 65.9672 105.814 66.4955C105.554 67.0149 105.182 67.4179 104.699 67.7045C104.224 67.9821 103.66 68.1209 103.006 68.1209ZM103.006 67.2343C103.651 67.2343 104.161 67.0149 104.538 66.5761C104.914 66.1284 105.102 65.4791 105.102 64.6284C105.102 63.7687 104.909 63.1194 104.524 62.6806C104.148 62.2328 103.642 62.009 103.006 62.009C102.37 62.009 101.864 62.2328 101.488 62.6806C101.112 63.1194 100.924 63.7687 100.924 64.6284C100.924 65.4791 101.112 66.1284 101.488 66.5761C101.864 67.0149 102.37 67.2343 103.006 67.2343ZM107.497 68.1478L107.094 67.3015C107.407 67.1582 107.667 66.9836 107.873 66.7776C108.088 66.5627 108.258 66.294 108.383 65.9716C108.509 65.6403 108.598 65.2328 108.652 64.7493C108.706 64.2567 108.732 63.6657 108.732 62.9761V61.2567H113.595V68H112.521V62.1164H109.74V63.0164C109.74 64.0731 109.664 64.9418 109.512 65.6224C109.368 66.303 109.131 66.8448 108.8 67.2478C108.477 67.6418 108.043 67.9418 107.497 68.1478ZM115.743 68V61.2567H116.831V63.6746H118.86C119.728 63.6746 120.382 63.8627 120.821 64.2388C121.269 64.606 121.492 65.1299 121.492 65.8104C121.492 66.2672 121.39 66.6612 121.184 66.9925C120.987 67.3149 120.691 67.5657 120.297 67.7448C119.912 67.9149 119.433 68 118.86 68H115.743ZM116.831 67.2209H118.766C119.312 67.2209 119.728 67.109 120.015 66.8851C120.301 66.6522 120.445 66.2985 120.445 65.8239C120.445 65.3493 120.301 65.0045 120.015 64.7896C119.737 64.5657 119.321 64.4537 118.766 64.4537H116.831V67.2209ZM123.116 68V61.2567H124.204V64.091H125.48L127.71 61.2567H128.905L126.353 64.5209L126.057 64.1851C126.317 64.2119 126.541 64.2746 126.729 64.3731C126.917 64.4716 127.096 64.6194 127.266 64.8164C127.445 65.0134 127.638 65.2866 127.844 65.6358L129.241 68H128.072L126.836 65.9045C126.684 65.6448 126.536 65.4478 126.393 65.3134C126.259 65.1791 126.102 65.0851 125.923 65.0313C125.753 64.9776 125.538 64.9507 125.278 64.9507H124.204V68H123.116ZM133.164 68.1209C132.52 68.1209 131.956 67.9821 131.472 67.7045C130.997 67.4179 130.63 67.0149 130.37 66.4955C130.111 65.9672 129.981 65.3448 129.981 64.6284C129.981 63.903 130.111 63.2806 130.37 62.7612C130.63 62.2418 130.997 61.8433 131.472 61.5657C131.956 61.2791 132.52 61.1358 133.164 61.1358C133.818 61.1358 134.382 61.2791 134.857 61.5657C135.341 61.8433 135.712 62.2418 135.972 62.7612C136.241 63.2806 136.375 63.903 136.375 64.6284C136.375 65.3448 136.241 65.9672 135.972 66.4955C135.712 67.0149 135.341 67.4179 134.857 67.7045C134.382 67.9821 133.818 68.1209 133.164 68.1209ZM133.164 67.2343C133.809 67.2343 134.32 67.0149 134.696 66.5761C135.072 66.1284 135.26 65.4791 135.26 64.6284C135.26 63.7687 135.067 63.1194 134.682 62.6806C134.306 62.2328 133.8 62.009 133.164 62.009C132.529 62.009 132.023 62.2328 131.647 62.6806C131.27 63.1194 131.082 63.7687 131.082 64.6284C131.082 65.4791 131.27 66.1284 131.647 66.5761C132.023 67.0149 132.529 67.2343 133.164 67.2343ZM141.651 68V61.2567H142.565L145.09 65.7836L147.629 61.2567H148.542V68H147.575V62.4657H147.857L145.372 66.9119H144.821L142.323 62.4522H142.618V68H141.651ZM153.51 68.1209C152.866 68.1209 152.302 67.9821 151.818 67.7045C151.343 67.4179 150.976 67.0149 150.716 66.4955C150.457 65.9672 150.327 65.3448 150.327 64.6284C150.327 63.903 150.457 63.2806 150.716 62.7612C150.976 62.2418 151.343 61.8433 151.818 61.5657C152.302 61.2791 152.866 61.1358 153.51 61.1358C154.164 61.1358 154.728 61.2791 155.203 61.5657C155.687 61.8433 156.058 62.2418 156.318 62.7612C156.587 63.2806 156.721 63.903 156.721 64.6284C156.721 65.3448 156.587 65.9672 156.318 66.4955C156.058 67.0149 155.687 67.4179 155.203 67.7045C154.728 67.9821 154.164 68.1209 153.51 68.1209ZM153.51 67.2343C154.155 67.2343 154.666 67.0149 155.042 66.5761C155.418 66.1284 155.606 65.4791 155.606 64.6284C155.606 63.7687 155.413 63.1194 155.028 62.6806C154.652 62.2328 154.146 62.009 153.51 62.009C152.875 62.009 152.369 62.2328 151.993 62.6806C151.616 63.1194 151.428 63.7687 151.428 64.6284C151.428 65.4791 151.616 66.1284 151.993 66.5761C152.369 67.0149 152.875 67.2343 153.51 67.2343ZM157.434 68L158.831 65.6358C159.046 65.2866 159.238 65.0134 159.408 64.8164C159.578 64.6194 159.758 64.4716 159.946 64.3731C160.143 64.2746 160.366 64.2119 160.617 64.1851L160.349 64.5209L157.783 61.2567H158.978L161.222 64.091H162.31V61.2567H163.398V64.091H164.472L166.702 61.2567H167.911L165.332 64.5209L165.05 64.1851C165.31 64.2119 165.534 64.2746 165.722 64.3731C165.919 64.4716 166.107 64.6194 166.286 64.8164C166.465 65.0134 166.658 65.2866 166.863 65.6358L168.247 68H167.078L165.843 65.9045C165.69 65.6448 165.543 65.4478 165.399 65.3134C165.265 65.1791 165.113 65.0851 164.943 65.0313C164.772 64.9776 164.558 64.9507 164.298 64.9507H163.398V68H162.31V64.9507H161.396C161.137 64.9507 160.922 64.9776 160.752 65.0313C160.581 65.0851 160.425 65.1791 160.281 65.3134C160.147 65.4478 160.004 65.6448 159.852 65.9045L158.616 68H157.434ZM169.343 68V61.2567H170.431V64.0776H174.139V61.2567H175.227V68H174.139V64.9507H170.431V68H169.343ZM180.193 68.1209C179.548 68.1209 178.984 67.9821 178.5 67.7045C178.025 67.4179 177.658 67.0149 177.398 66.4955C177.139 65.9672 177.009 65.3448 177.009 64.6284C177.009 63.903 177.139 63.2806 177.398 62.7612C177.658 62.2418 178.025 61.8433 178.5 61.5657C178.984 61.2791 179.548 61.1358 180.193 61.1358C180.846 61.1358 181.41 61.2791 181.885 61.5657C182.369 61.8433 182.74 62.2418 183 62.7612C183.269 63.2806 183.403 63.903 183.403 64.6284C183.403 65.3448 183.269 65.9672 183 66.4955C182.74 67.0149 182.369 67.4179 181.885 67.7045C181.41 67.9821 180.846 68.1209 180.193 68.1209ZM180.193 67.2343C180.837 67.2343 181.348 67.0149 181.724 66.5761C182.1 66.1284 182.288 65.4791 182.288 64.6284C182.288 63.7687 182.096 63.1194 181.71 62.6806C181.334 62.2328 180.828 62.009 180.193 62.009C179.557 62.009 179.051 62.2328 178.675 62.6806C178.298 63.1194 178.11 63.7687 178.11 64.6284C178.11 65.4791 178.298 66.1284 178.675 66.5761C179.051 67.0149 179.557 67.2343 180.193 67.2343ZM37.1205 88V81.2567H40.3712C41.1503 81.2567 41.7324 81.409 42.1175 81.7134C42.5115 82.009 42.7085 82.4478 42.7085 83.0299C42.7085 83.4597 42.5563 83.8224 42.2518 84.1179C41.9563 84.4045 41.5712 84.5746 41.0966 84.6284V84.4672C41.6518 84.4851 42.0951 84.6463 42.4265 84.9507C42.7578 85.2552 42.9235 85.6493 42.9235 86.1328C42.9235 86.7149 42.7085 87.1716 42.2787 87.503C41.8578 87.8343 41.2578 88 40.4787 88H37.1205ZM38.1548 87.2612H40.425C40.8996 87.2612 41.2623 87.1627 41.513 86.9657C41.7727 86.7597 41.9026 86.4687 41.9026 86.0925C41.9026 85.7164 41.7727 85.4299 41.513 85.2328C41.2623 85.0358 40.8996 84.9373 40.425 84.9373H38.1548V87.2612ZM38.1548 84.1985H40.3041C40.7429 84.1985 41.0832 84.1 41.325 83.903C41.5667 83.706 41.6876 83.4328 41.6876 83.0836C41.6876 82.7343 41.5667 82.4657 41.325 82.2776C41.0832 82.0806 40.7429 81.9821 40.3041 81.9821H38.1548V84.1985ZM44.6109 88V81.2567H45.6989V83.6746H47.7273C48.5959 83.6746 49.2497 83.8627 49.6885 84.2388C50.1362 84.606 50.3601 85.1299 50.3601 85.8104C50.3601 86.2672 50.2571 86.6612 50.0512 86.9925C49.8541 87.3149 49.5586 87.5657 49.1646 87.7448C48.7795 87.9149 48.3004 88 47.7273 88H44.6109ZM45.6989 87.2209H47.6332C48.1795 87.2209 48.5959 87.109 48.8825 86.8851C49.1691 86.6522 49.3124 86.2985 49.3124 85.8239C49.3124 85.3493 49.1691 85.0045 48.8825 84.7896C48.6049 84.5657 48.1885 84.4537 47.6332 84.4537H45.6989V87.2209ZM51.381 88V81.2567H52.4556V88H51.381ZM54.6068 88V81.2567H55.6008V86.9925H55.2381L59.5366 81.2567H60.4501V88H59.4695V82.2507H59.8322L55.5336 88H54.6068ZM57.5217 80.6254C57.1545 80.6254 56.8142 80.5627 56.5008 80.4373C56.1874 80.3119 55.9142 80.1239 55.6814 79.8731C55.4486 79.6134 55.2739 79.2955 55.1575 78.9194L55.8023 78.6776C55.9635 79.1075 56.1829 79.4254 56.4605 79.6313C56.7471 79.8373 57.1053 79.9403 57.5351 79.9403C57.965 79.9403 58.3187 79.8463 58.5963 79.6582C58.8739 79.4701 59.1157 79.1478 59.3217 78.691L59.9396 78.9194C59.7068 79.5284 59.3799 79.9672 58.959 80.2358C58.5471 80.4955 58.068 80.6254 57.5217 80.6254ZM64.033 88V82.1299H61.5882V81.2567H67.5792V82.1299H65.121V88H64.033ZM68.7086 88V81.2567H69.7027V86.9925H69.34L73.6385 81.2567H74.5519V88H73.5713V82.2507H73.934L69.6355 88H68.7086ZM80.2 88V81.2567H81.2881V84.0776H84.9955V81.2567H86.0836V88H84.9955V84.9507H81.2881V88H80.2ZM90.8476 88.1209C90.2476 88.1209 89.7237 87.9821 89.276 87.7045C88.8282 87.4179 88.479 87.0149 88.2282 86.4955C87.9864 85.9761 87.8655 85.3537 87.8655 84.6284C87.8655 83.894 87.9864 83.2672 88.2282 82.7478C88.479 82.2284 88.8282 81.8299 89.276 81.5522C89.7237 81.2746 90.2476 81.1358 90.8476 81.1358C91.4566 81.1358 91.9805 81.2925 92.4193 81.606C92.867 81.9104 93.1626 82.3269 93.3058 82.8552H93.1446L93.2924 81.2567H94.3402C94.3133 81.5164 94.2864 81.7806 94.2596 82.0493C94.2417 82.309 94.2327 82.5642 94.2327 82.8149V88H93.1446V86.4149H93.2924C93.1491 86.9433 92.8536 87.3597 92.4058 87.6642C91.9581 87.9687 91.4387 88.1209 90.8476 88.1209ZM91.0626 87.2343C91.7073 87.2343 92.2178 87.0149 92.5939 86.5761C92.97 86.1284 93.1581 85.4791 93.1581 84.6284C93.1581 83.7687 92.97 83.1194 92.5939 82.6806C92.2178 82.2328 91.7073 82.009 91.0626 82.009C90.4267 82.009 89.9163 82.2328 89.5312 82.6806C89.1551 83.1194 88.967 83.7687 88.967 84.6284C88.967 85.4791 89.1551 86.1284 89.5312 86.5761C89.9163 87.0149 90.4267 87.2343 91.0626 87.2343ZM99.9295 88V81.2567H105.773V88H104.685V82.1164H101.018V88H99.9295ZM110.968 88.1209C109.911 88.1209 109.078 87.8164 108.469 87.2075C107.86 86.5896 107.556 85.7343 107.556 84.6418C107.556 83.9343 107.69 83.3209 107.959 82.8015C108.227 82.2731 108.603 81.8657 109.087 81.5791C109.571 81.2836 110.126 81.1358 110.753 81.1358C111.371 81.1358 111.89 81.2657 112.311 81.5254C112.732 81.7851 113.054 82.1567 113.278 82.6403C113.502 83.1149 113.614 83.6791 113.614 84.3328V84.7358H108.388V84.0507H112.902L112.674 84.2254C112.674 83.509 112.512 82.9493 112.19 82.5463C111.868 82.1433 111.388 81.9418 110.753 81.9418C110.081 81.9418 109.557 82.1791 109.181 82.6537C108.805 83.1194 108.617 83.7507 108.617 84.5478V84.6687C108.617 85.5104 108.823 86.1507 109.235 86.5896C109.656 87.0194 110.242 87.2343 110.994 87.2343C111.397 87.2343 111.774 87.1761 112.123 87.0597C112.481 86.9343 112.821 86.7328 113.144 86.4552L113.52 87.2209C113.224 87.5075 112.848 87.7313 112.391 87.8925C111.944 88.0448 111.469 88.1209 110.968 88.1209ZM115.41 90.9015V82.8149C115.41 82.5642 115.397 82.309 115.37 82.0493C115.352 81.7806 115.329 81.5164 115.303 81.2567H116.35L116.498 82.8552H116.337C116.48 82.3269 116.771 81.9104 117.21 81.606C117.649 81.2925 118.173 81.1358 118.782 81.1358C119.391 81.1358 119.914 81.2746 120.353 81.5522C120.801 81.8299 121.15 82.2284 121.401 82.7478C121.652 83.2672 121.777 83.894 121.777 84.6284C121.777 85.3537 121.652 85.9761 121.401 86.4955C121.159 87.0149 120.814 87.4179 120.367 87.7045C119.919 87.9821 119.391 88.1209 118.782 88.1209C118.182 88.1209 117.662 87.9687 117.223 87.6642C116.785 87.3597 116.494 86.9433 116.35 86.4149H116.498V90.9015H115.41ZM118.567 87.2343C119.211 87.2343 119.722 87.0149 120.098 86.5761C120.483 86.1284 120.676 85.4791 120.676 84.6284C120.676 83.7687 120.483 83.1194 120.098 82.6806C119.722 82.2328 119.211 82.009 118.567 82.009C117.931 82.009 117.42 82.2328 117.035 82.6806C116.659 83.1194 116.471 83.7687 116.471 84.6284C116.471 85.4791 116.659 86.1284 117.035 86.5761C117.42 87.0149 117.931 87.2343 118.567 87.2343ZM123.555 88V81.2567H126.806C127.585 81.2567 128.167 81.409 128.552 81.7134C128.946 82.009 129.143 82.4478 129.143 83.0299C129.143 83.4597 128.991 83.8224 128.686 84.1179C128.391 84.4045 128.006 84.5746 127.531 84.6284V84.4672C128.086 84.4851 128.53 84.6463 128.861 84.9507C129.192 85.2552 129.358 85.6493 129.358 86.1328C129.358 86.7149 129.143 87.1716 128.713 87.503C128.292 87.8343 127.692 88 126.913 88H123.555ZM124.589 87.2612H126.859C127.334 87.2612 127.697 87.1627 127.948 86.9657C128.207 86.7597 128.337 86.4687 128.337 86.0925C128.337 85.7164 128.207 85.4299 127.948 85.2328C127.697 85.0358 127.334 84.9373 126.859 84.9373H124.589V87.2612ZM124.589 84.1985H126.739C127.177 84.1985 127.518 84.1 127.759 83.903C128.001 83.706 128.122 83.4328 128.122 83.0836C128.122 82.7343 128.001 82.4657 127.759 82.2776C127.518 82.0806 127.177 81.9821 126.739 81.9821H124.589V84.1985ZM131.045 88V81.2567H132.133V83.6746H134.162C135.03 83.6746 135.684 83.8627 136.123 84.2388C136.571 84.606 136.795 85.1299 136.795 85.8104C136.795 86.2672 136.692 86.6612 136.486 86.9925C136.289 87.3149 135.993 87.5657 135.599 87.7448C135.214 87.9149 134.735 88 134.162 88H131.045ZM132.133 87.2209H134.068C134.614 87.2209 135.03 87.109 135.317 86.8851C135.604 86.6522 135.747 86.2985 135.747 85.8239C135.747 85.3493 135.604 85.0045 135.317 84.7896C135.039 84.5657 134.623 84.4537 134.068 84.4537H132.133V87.2209ZM137.816 88V81.2567H138.89V88H137.816ZM141.041 88V81.2567H142.035V86.9925H141.673L145.971 81.2567H146.885V88H145.904V82.2507H146.267L141.968 88H141.041ZM143.956 80.6254C143.589 80.6254 143.249 80.5627 142.935 80.4373C142.622 80.3119 142.349 80.1239 142.116 79.8731C141.883 79.6134 141.708 79.2955 141.592 78.9194L142.237 78.6776C142.398 79.1075 142.617 79.4254 142.895 79.6313C143.182 79.8373 143.54 79.9403 143.97 79.9403C144.4 79.9403 144.753 79.8463 145.031 79.6582C145.308 79.4701 145.55 79.1478 145.756 78.691L146.374 78.9194C146.141 79.5284 145.814 79.9672 145.394 80.2358C144.982 80.4955 144.503 80.6254 143.956 80.6254ZM151.821 89.7463V87.1403H152.533C152.855 86.6836 153.088 86.1373 153.231 85.5015C153.374 84.8657 153.446 84.1134 153.446 83.2448V81.2567H158.188V87.1403H159.249V89.7463H158.309V88H152.748V89.7463H151.821ZM153.58 87.1537H157.154V82.103H154.4V83.4194C154.4 84.1269 154.328 84.8119 154.185 85.4746C154.051 86.1284 153.849 86.6881 153.58 87.1537ZM163.526 88.1209C162.881 88.1209 162.317 87.9821 161.834 87.7045C161.359 87.4179 160.992 87.0149 160.732 86.4955C160.472 85.9672 160.343 85.3448 160.343 84.6284C160.343 83.903 160.472 83.2806 160.732 82.7612C160.992 82.2418 161.359 81.8433 161.834 81.5657C162.317 81.2791 162.881 81.1358 163.526 81.1358C164.18 81.1358 164.744 81.2791 165.219 81.5657C165.702 81.8433 166.074 82.2418 166.334 82.7612C166.602 83.2806 166.737 83.903 166.737 84.6284C166.737 85.3448 166.602 85.9672 166.334 86.4955C166.074 87.0149 165.702 87.4179 165.219 87.7045C164.744 87.9821 164.18 88.1209 163.526 88.1209ZM163.526 87.2343C164.171 87.2343 164.681 87.0149 165.057 86.5761C165.434 86.1284 165.622 85.4791 165.622 84.6284C165.622 83.7687 165.429 83.1194 165.044 82.6806C164.668 82.2328 164.162 82.009 163.526 82.009C162.89 82.009 162.384 82.2328 162.008 82.6806C161.632 83.1194 161.444 83.7687 161.444 84.6284C161.444 85.4791 161.632 86.1284 162.008 86.5761C162.384 87.0149 162.89 87.2343 163.526 87.2343ZM167.52 88L170.542 84.2522V84.7896L167.681 81.2567H168.997L171.16 84.0104H170.77L172.92 81.2567H174.223L171.402 84.7761V84.2791L174.397 88H173.067L170.757 85.0582H171.16L168.823 88H167.52ZM178.376 88.1209C177.731 88.1209 177.167 87.9821 176.683 87.7045C176.209 87.4179 175.841 87.0149 175.582 86.4955C175.322 85.9672 175.192 85.3448 175.192 84.6284C175.192 83.903 175.322 83.2806 175.582 82.7612C175.841 82.2418 176.209 81.8433 176.683 81.5657C177.167 81.2791 177.731 81.1358 178.376 81.1358C179.029 81.1358 179.594 81.2791 180.068 81.5657C180.552 81.8433 180.923 82.2418 181.183 82.7612C181.452 83.2806 181.586 83.903 181.586 84.6284C181.586 85.3448 181.452 85.9672 181.183 86.4955C180.923 87.0149 180.552 87.4179 180.068 87.7045C179.594 87.9821 179.029 88.1209 178.376 88.1209ZM178.376 87.2343C179.02 87.2343 179.531 87.0149 179.907 86.5761C180.283 86.1284 180.471 85.4791 180.471 84.6284C180.471 83.7687 180.279 83.1194 179.894 82.6806C179.517 82.2328 179.011 82.009 178.376 82.009C177.74 82.009 177.234 82.2328 176.858 82.6806C176.482 83.1194 176.294 83.7687 176.294 84.6284C176.294 85.4791 176.482 86.1284 176.858 86.5761C177.234 87.0149 177.74 87.2343 178.376 87.2343ZM182.648 89.7463V87.1403H183.36C183.682 86.6836 183.915 86.1373 184.059 85.5015C184.202 84.8657 184.273 84.1134 184.273 83.2448V81.2567H189.015V87.1403H190.076V89.7463H189.136V88H183.575V89.7463H182.648ZM184.408 87.1537H187.981V82.103H185.227V83.4194C185.227 84.1269 185.156 84.8119 185.012 85.4746C184.878 86.1284 184.676 86.6881 184.408 87.1537ZM60.077 108V101.257H65.9203V108H64.8322V102.116H61.165V108H60.077ZM70.8867 108.121C70.242 108.121 69.6778 107.982 69.1942 107.704C68.7196 107.418 68.3524 107.015 68.0927 106.496C67.833 105.967 67.7032 105.345 67.7032 104.628C67.7032 103.903 67.833 103.281 68.0927 102.761C68.3524 102.242 68.7196 101.843 69.1942 101.566C69.6778 101.279 70.242 101.136 70.8867 101.136C71.5405 101.136 72.1047 101.279 72.5793 101.566C73.0629 101.843 73.4345 102.242 73.6942 102.761C73.9629 103.281 74.0972 103.903 74.0972 104.628C74.0972 105.345 73.9629 105.967 73.6942 106.496C73.4345 107.015 73.0629 107.418 72.5793 107.704C72.1047 107.982 71.5405 108.121 70.8867 108.121ZM70.8867 107.234C71.5315 107.234 72.042 107.015 72.4181 106.576C72.7942 106.128 72.9823 105.479 72.9823 104.628C72.9823 103.769 72.7897 103.119 72.4047 102.681C72.0285 102.233 71.5226 102.009 70.8867 102.009C70.2509 102.009 69.745 102.233 69.3688 102.681C68.9927 103.119 68.8047 103.769 68.8047 104.628C68.8047 105.479 68.9927 106.128 69.3688 106.576C69.745 107.015 70.2509 107.234 70.8867 107.234ZM78.7591 108.121C78.0964 108.121 77.5188 107.978 77.0263 107.691C76.5427 107.404 76.1666 106.997 75.8979 106.469C75.6382 105.94 75.5084 105.313 75.5084 104.588C75.5084 103.854 75.6427 103.231 75.9114 102.721C76.18 102.201 76.5561 101.807 77.0397 101.539C77.5323 101.27 78.1054 101.136 78.7591 101.136C79.189 101.136 79.6054 101.212 80.0084 101.364C80.4203 101.516 80.7606 101.731 81.0293 102.009L80.6397 102.788C80.3711 102.528 80.0755 102.336 79.7532 102.21C79.4397 102.085 79.1308 102.022 78.8263 102.022C78.1278 102.022 77.586 102.242 77.2009 102.681C76.8158 103.119 76.6233 103.76 76.6233 104.601C76.6233 105.434 76.8158 106.079 77.2009 106.536C77.586 106.993 78.1278 107.221 78.8263 107.221C79.1218 107.221 79.4263 107.163 79.7397 107.046C80.0621 106.93 80.3621 106.737 80.6397 106.469L81.0293 107.234C80.7517 107.521 80.4069 107.74 79.9949 107.893C79.583 108.045 79.1711 108.121 78.7591 108.121ZM82.2904 108.148L81.8874 107.301C82.2008 107.158 82.4605 106.984 82.6665 106.778C82.8814 106.563 83.0516 106.294 83.177 105.972C83.3023 105.64 83.3919 105.233 83.4456 104.749C83.4993 104.257 83.5262 103.666 83.5262 102.976V101.257H88.3889V108H87.3143V102.116H84.5337V103.016C84.5337 104.073 84.4576 104.942 84.3053 105.622C84.162 106.303 83.9247 106.845 83.5934 107.248C83.271 107.642 82.8367 107.942 82.2904 108.148ZM93.5863 108.121C92.5295 108.121 91.6967 107.816 91.0877 107.207C90.4788 106.59 90.1743 105.734 90.1743 104.642C90.1743 103.934 90.3086 103.321 90.5773 102.801C90.846 102.273 91.2221 101.866 91.7057 101.579C92.1892 101.284 92.7445 101.136 93.3713 101.136C93.9892 101.136 94.5086 101.266 94.9295 101.525C95.3504 101.785 95.6728 102.157 95.8967 102.64C96.1206 103.115 96.2325 103.679 96.2325 104.333V104.736H91.0071V104.051H95.5206L95.2922 104.225C95.2922 103.509 95.131 102.949 94.8086 102.546C94.4863 102.143 94.0071 101.942 93.3713 101.942C92.6997 101.942 92.1758 102.179 91.7997 102.654C91.4236 103.119 91.2355 103.751 91.2355 104.548V104.669C91.2355 105.51 91.4415 106.151 91.8534 106.59C92.2743 107.019 92.8609 107.234 93.6131 107.234C94.0161 107.234 94.3922 107.176 94.7415 107.06C95.0997 106.934 95.44 106.733 95.7624 106.455L96.1385 107.221C95.843 107.507 95.4668 107.731 95.0101 107.893C94.5624 108.045 94.0877 108.121 93.5863 108.121ZM104.298 108.121C103.654 108.121 103.089 107.982 102.606 107.704C102.131 107.418 101.764 107.015 101.504 106.496C101.245 105.967 101.115 105.345 101.115 104.628C101.115 103.903 101.245 103.281 101.504 102.761C101.764 102.242 102.131 101.843 102.606 101.566C103.089 101.279 103.654 101.136 104.298 101.136C104.952 101.136 105.516 101.279 105.991 101.566C106.474 101.843 106.846 102.242 107.106 102.761C107.374 103.281 107.509 103.903 107.509 104.628C107.509 105.345 107.374 105.967 107.106 106.496C106.846 107.015 106.474 107.418 105.991 107.704C105.516 107.982 104.952 108.121 104.298 108.121ZM104.298 107.234C104.943 107.234 105.454 107.015 105.83 106.576C106.206 106.128 106.394 105.479 106.394 104.628C106.394 103.769 106.201 103.119 105.816 102.681C105.44 102.233 104.934 102.009 104.298 102.009C103.662 102.009 103.157 102.233 102.78 102.681C102.404 103.119 102.216 103.769 102.216 104.628C102.216 105.479 102.404 106.128 102.78 106.576C103.157 107.015 103.662 107.234 104.298 107.234ZM112.144 108.121C111.159 108.121 110.375 107.803 109.793 107.167C109.211 106.531 108.92 105.604 108.92 104.387V103.204C108.92 101.96 109.175 100.952 109.686 100.182C110.196 99.4119 111.002 98.8925 112.104 98.6239L114.562 98.006L114.898 98.8925L112.171 99.5642C111.669 99.6896 111.257 99.909 110.935 100.222C110.612 100.527 110.366 100.894 110.196 101.324C110.035 101.745 109.954 102.193 109.954 102.667V103.204H109.793C109.901 102.801 110.075 102.457 110.317 102.17C110.559 101.875 110.854 101.651 111.204 101.499C111.562 101.337 111.956 101.257 112.386 101.257C112.968 101.257 113.478 101.396 113.917 101.673C114.356 101.942 114.696 102.331 114.938 102.842C115.189 103.343 115.314 103.948 115.314 104.655C115.314 105.363 115.184 105.976 114.924 106.496C114.665 107.015 114.298 107.418 113.823 107.704C113.348 107.982 112.789 108.121 112.144 108.121ZM112.117 107.248C112.771 107.248 113.286 107.033 113.662 106.603C114.038 106.164 114.226 105.524 114.226 104.682C114.226 103.849 114.033 103.218 113.648 102.788C113.272 102.349 112.762 102.13 112.117 102.13C111.472 102.13 110.957 102.345 110.572 102.775C110.196 103.204 110.008 103.813 110.008 104.601C110.008 105.479 110.196 106.142 110.572 106.59C110.948 107.028 111.463 107.248 112.117 107.248ZM116.807 111.049L116.552 110.149C116.973 110.051 117.322 109.934 117.6 109.8C117.886 109.675 118.124 109.504 118.312 109.29C118.5 109.075 118.661 108.806 118.795 108.484L119.145 107.691L119.118 108.148L116.176 101.257H117.358L119.789 107.181H119.44L121.845 101.257H122.986L119.87 108.564C119.691 108.994 119.494 109.352 119.279 109.639C119.064 109.934 118.831 110.172 118.58 110.351C118.339 110.539 118.07 110.687 117.774 110.794C117.479 110.901 117.157 110.987 116.807 111.049ZM128.642 108V105.26C128.382 105.412 128.1 105.528 127.796 105.609C127.491 105.69 127.164 105.73 126.815 105.73C125.866 105.73 125.158 105.51 124.693 105.072C124.236 104.624 124.008 103.948 124.008 103.043V101.257H125.096V102.963C125.096 103.616 125.243 104.091 125.539 104.387C125.843 104.673 126.318 104.816 126.963 104.816C127.294 104.816 127.59 104.781 127.849 104.709C128.109 104.637 128.364 104.516 128.615 104.346V101.257H129.703V108H128.642ZM134.908 108.121C133.851 108.121 133.018 107.816 132.409 107.207C131.801 106.59 131.496 105.734 131.496 104.642C131.496 103.934 131.63 103.321 131.899 102.801C132.168 102.273 132.544 101.866 133.027 101.579C133.511 101.284 134.066 101.136 134.693 101.136C135.311 101.136 135.83 101.266 136.251 101.525C136.672 101.785 136.995 102.157 137.218 102.64C137.442 103.115 137.554 103.679 137.554 104.333V104.736H132.329V104.051H136.842L136.614 104.225C136.614 103.509 136.453 102.949 136.13 102.546C135.808 102.143 135.329 101.942 134.693 101.942C134.021 101.942 133.498 102.179 133.121 102.654C132.745 103.119 132.557 103.751 132.557 104.548V104.669C132.557 105.51 132.763 106.151 133.175 106.59C133.596 107.019 134.183 107.234 134.935 107.234C135.338 107.234 135.714 107.176 136.063 107.06C136.421 106.934 136.762 106.733 137.084 106.455L137.46 107.221C137.165 107.507 136.789 107.731 136.332 107.893C135.884 108.045 135.409 108.121 134.908 108.121ZM139.297 108V101.257H140.385V104.078H144.092V101.257H145.18V108H144.092V104.951H140.385V108H139.297ZM147.325 108V101.257H148.319V106.993H147.956L152.255 101.257H153.168V108H152.188V102.251H152.55L148.252 108H147.325ZM154.776 108L155.851 106.146C156.021 105.851 156.236 105.613 156.496 105.434C156.755 105.246 157.029 105.152 157.315 105.152H157.503L157.49 105.273C156.729 105.273 156.138 105.103 155.717 104.763C155.296 104.413 155.085 103.912 155.085 103.258C155.085 102.631 155.291 102.143 155.703 101.794C156.115 101.436 156.729 101.257 157.544 101.257H160.539V108H159.518V105.394H158.511C158.135 105.394 157.817 105.488 157.557 105.676C157.297 105.864 157.078 106.101 156.899 106.388L155.985 108H154.776ZM157.732 104.628H159.518V102.009H157.732C157.185 102.009 156.778 102.125 156.509 102.358C156.25 102.591 156.12 102.909 156.12 103.312C156.12 103.733 156.25 104.06 156.509 104.293C156.778 104.516 157.185 104.628 157.732 104.628ZM163.791 105.528V105.139C163.791 104.682 163.876 104.257 164.046 103.863C164.225 103.46 164.538 103.007 164.986 102.506C165.335 102.121 165.582 101.785 165.725 101.499C165.868 101.203 165.94 100.903 165.94 100.599C165.94 100.213 165.801 99.9134 165.523 99.6985C165.246 99.4746 164.861 99.3627 164.368 99.3627C164.019 99.3627 163.683 99.4119 163.361 99.5104C163.038 99.6 162.729 99.7254 162.434 99.8866V98.8791C162.729 98.7269 163.052 98.6104 163.401 98.5298C163.759 98.4493 164.118 98.409 164.476 98.409C164.986 98.409 165.434 98.494 165.819 98.6642C166.204 98.8254 166.504 99.0627 166.719 99.3761C166.943 99.6806 167.055 100.057 167.055 100.504C167.055 100.791 167.01 101.069 166.921 101.337C166.831 101.597 166.692 101.861 166.504 102.13C166.316 102.39 166.074 102.676 165.779 102.99C165.34 103.437 165.031 103.831 164.852 104.172C164.673 104.503 164.565 104.843 164.529 105.193L164.489 105.528H163.791ZM163.441 108V106.63H164.825V108H163.441Z" fill="white"/>
</svg>
