<svg width="50" height="40" viewBox="0 0 50 40" fill="none" xmlns="http://www.w3.org/2000/svg">
<g id="Logo">
<g id="Group">
<path id="Vector" d="M13.2 33.6511C13.2002 33.6509 13.2002 33.6506 13.2004 33.6504C13.7981 32.7695 29.9963 4.93572 30.4831 4.0943C30.5268 4.01888 30.5616 3.93726 30.6834 3.93519C30.8098 3.93313 30.8393 4.02039 30.8804 4.09449C31.3854 5.00229 39.0491 18.8214 39.1421 18.8223C39.2167 18.8231 49.2871 1.50291 49.7374 0.719415C49.7425 0.710387 49.7583 0.710011 49.7644 0.718662C49.8097 0.783546 49.8004 0.83959 49.8006 0.898644C49.8046 4.08339 49.8041 7.26814 49.8041 10.4529C49.8041 10.4548 49.8036 10.4565 49.8025 10.4583C49.673 10.6663 42.5721 22.8528 42.1046 23.6312C41.9756 23.846 41.9688 24.0263 42.0987 24.2501C42.6715 25.2369 46.856 32.7817 47.5843 34.0846C48.2189 35.2194 49.7581 37.8676 49.7616 38.0873C49.769 38.567 49.7551 39.0472 49.7493 39.5271C49.749 39.5393 49.7369 39.5491 49.7218 39.5491C49.7053 39.5491 49.6907 39.541 49.6847 39.5286C49.3236 38.7745 42.3959 26.3821 41.8076 25.3278C41.8022 25.318 33.1235 9.66883 33.0041 9.66413C32.8528 9.65811 19.3287 33.0185 19.3108 33.0525C19.1565 33.3434 19.1823 33.3735 19.5769 33.3733C21.806 33.3728 29.588 33.3303 29.6008 33.3301C29.9582 33.3286 29.9902 33.3579 29.9888 33.6479C29.9872 34.0316 29.9596 34.0619 29.5978 34.0619C24.2554 34.0632 18.9132 34.0639 13.5708 34.0654C13.2065 34.0628 13.0619 33.8862 13.2 33.6511Z" fill="white"/>
<path id="Vector_2" d="M47.6614 24.0834C47.5921 23.9557 47.59 23.93 47.6651 23.7919C48.3229 22.5824 49.7079 20.1146 49.7439 20.0503C49.7439 22.6594 49.7439 25.2609 49.7439 27.8625C49.7269 27.866 48.2 25.0774 47.6614 24.0834Z" fill="white"/>
</g>
<g id="Group_2">
<g id="Group_3">
<path id="Vector_3" d="M4.28127 38.13C3.57952 36.8701 2.65074 35.2025 2.6038 35.1181C2.59776 35.1071 2.59335 35.0944 2.57476 35.0947C2.55686 35.0951 2.55175 35.107 2.54524 35.1181C2.47367 35.2416 0.095148 39.3287 0.00754496 39.4581C0.00754496 39.4581 0.00754496 39.4581 0.00754496 39.4583C-0.0126711 39.4927 0.00847387 39.5187 0.0621511 39.5192C0.311018 39.5192 0.565927 39.519 0.814562 39.519C0.838728 39.4775 2.89333 35.9352 2.91564 35.9362C2.92703 35.9365 3.63203 37.1987 4.21528 38.2458C4.23619 38.2063 4.25827 38.1678 4.28127 38.13Z" fill="white"/>
<path id="Vector_4" d="M4.2483 38.3051C4.8513 37.2693 5.61603 35.9601 5.6295 35.9607C5.64716 35.9614 7.33951 39.0076 7.6474 39.5612H7.77868C7.7759 39.5562 7.77311 39.5513 7.77055 39.5468C7.66366 39.3555 5.39179 35.2763 5.31767 35.143C5.31162 35.132 5.30721 35.1193 5.28862 35.1196C5.27073 35.12 5.26561 35.1319 5.25911 35.143C5.2203 35.2099 4.5053 36.4388 3.84375 37.5722" fill="white"/>
</g>
<g id="Group_4">
<path id="Vector_5" d="M11.3141 35.9607C11.3317 35.9614 13.0241 39.0076 13.332 39.5612H13.4633C13.4605 39.5562 13.4577 39.5513 13.4551 39.5468C13.3482 39.3555 11.0764 35.2763 11.0022 35.143C10.9962 35.132 10.9918 35.1193 10.9732 35.1196C10.9553 35.12 10.9502 35.1319 10.9437 35.143C10.8721 35.2665 8.49359 39.3536 8.40598 39.483C8.40598 39.483 8.40598 39.483 8.40598 39.4832C8.38577 39.5178 8.40691 39.5436 8.46059 39.5441C8.70946 39.5441 8.96436 39.5439 9.213 39.5439C9.2374 39.502 11.292 35.9597 11.3141 35.9607Z" fill="white"/>
<path id="Vector_6" d="M9.25939 38.1975C9.2336 38.2298 9.20711 38.2618 9.17969 38.2933C10.0901 38.2929 10.9406 38.2931 11.2434 38.2933C11.2434 38.2933 11.2436 38.2043 11.2436 38.1968C11.1441 38.1968 10.3083 38.1972 9.25939 38.1975Z" fill="white"/>
</g>
<path id="Vector_7" d="M17.0797 35.9475C17.0974 35.9482 18.7897 38.9944 19.0976 39.5481H19.2289C19.2261 39.543 19.2233 39.5381 19.2208 39.5336C19.1139 39.3423 16.842 35.2631 16.7679 35.1298C16.7618 35.1189 16.7574 35.1061 16.7388 35.1065C16.7209 35.1068 16.7158 35.1187 16.7093 35.1298C16.6377 35.2533 14.2592 39.3404 14.1716 39.4698C14.1716 39.4698 14.1716 39.4698 14.1716 39.47C14.1514 39.5044 14.1725 39.5304 14.2262 39.5309C14.4751 39.5309 14.73 39.5308 14.9786 39.5308C15.0028 39.4888 17.0574 35.9466 17.0797 35.9475Z" fill="white"/>
<path id="Vector_8" d="M21.0793 39.2696C20.6985 39.0936 20.3999 38.8431 20.1838 38.5179C19.9674 38.1927 19.8594 37.8134 19.8594 37.3799C19.8594 36.9325 19.9767 36.5362 20.2114 36.1913C20.4461 35.8464 20.7735 35.5784 21.1936 35.3875C21.6138 35.1966 22.0952 35.1011 22.6383 35.1011C22.9527 35.1011 23.2475 35.1409 23.5227 35.2203C23.7978 35.2999 24.0374 35.4063 24.2414 35.5395L24.1824 35.5991C23.9637 35.456 23.7358 35.3505 23.4987 35.2829C23.2615 35.2154 22.9931 35.1816 22.6936 35.1816C22.3127 35.1816 21.9846 35.275 21.7095 35.462C21.4344 35.6489 21.2255 35.9019 21.083 36.221C20.9406 36.5402 20.8693 36.8947 20.8693 37.2844C20.8693 37.6921 20.9455 38.056 21.0977 38.3761C21.2499 38.6964 21.4699 38.9469 21.7574 39.1278C22.0448 39.3087 22.3838 39.3992 22.7744 39.3992C23.116 39.3992 23.4286 39.3336 23.7123 39.2023C23.996 39.071 24.2251 38.895 24.3996 38.6744L24.4733 38.7101C24.257 38.9866 23.9776 39.1929 23.6349 39.329C23.2922 39.4652 22.869 39.5333 22.3652 39.5333C21.8889 39.5337 21.4602 39.4456 21.0793 39.2696Z" fill="white"/>
<path id="Vector_9" d="M26.721 39.5299L25.7501 39.5329V35.0986H26.721V38.4451L29.093 35.9799V35.0986H30.0638V39.5329H29.093V36.1093L26.721 38.5745V39.5299Z" fill="white"/>
<path id="Vector_10" d="M26.6357 38.6611C26.7419 38.5511 28.282 36.9587 29.3363 35.8687C29.281 35.8713 29.2259 35.8747 29.1711 35.8786C28.4391 36.6427 26.9108 38.2199 26.5625 38.5795L26.6236 38.6735C26.6278 38.6694 26.6317 38.6652 26.6357 38.6611Z" fill="white"/>
<g id="Group_5">
<path id="Vector_11" d="M31.3987 39.5337V35.0972H34.8498V35.1743H32.37V37.206H33.2119C33.7019 37.206 34.1102 37.2549 34.4364 37.3525C34.7627 37.4501 35.0046 37.5853 35.1621 37.758C35.3194 37.9306 35.3982 38.129 35.3982 38.353C35.3982 38.76 35.2139 39.0585 34.8459 39.2486C34.4776 39.4387 33.9215 39.5337 33.1775 39.5337H31.3987ZM33.1814 39.4566C33.5876 39.4402 33.8867 39.3359 34.0786 39.1436C34.2703 38.9514 34.3663 38.7043 34.3663 38.4021C34.3663 37.656 33.9257 37.2829 33.0445 37.2829H32.3702V39.4564H33.1814V39.4566Z" fill="white"/>
<path id="Vector_12" d="M34.9607 35.0954C33.7324 35.0967 32.2285 35.0956 31.8042 35.0952L31.7502 35.1917C31.757 35.1917 31.7637 35.1917 31.77 35.1917C31.9055 35.1916 33.4642 35.1917 34.9609 35.1919C34.9607 35.1589 34.9604 35.1408 34.9607 35.0954Z" fill="white"/>
</g>
</g>
</g>
</svg>
