<svg width="67" height="64" viewBox="0 0 67 64" fill="none" xmlns="http://www.w3.org/2000/svg">
<path d="M17.5999 54.2635C17.6003 54.2631 17.6003 54.2625 17.6006 54.2622C18.3974 52.811 39.995 6.95752 40.6441 5.57136C40.7024 5.44712 40.7488 5.31266 40.9112 5.30925C41.0797 5.30584 41.1191 5.4496 41.1739 5.57167C41.8472 7.0672 52.0655 29.8328 52.1894 29.8344C52.2889 29.8356 65.7161 1.30228 66.3165 0.0115522C66.3233 -0.00331936 66.3444 -0.00393927 66.3525 0.0103127C66.4129 0.117202 66.4005 0.20953 66.4008 0.306815C66.4061 5.55339 66.4054 10.8 66.4054 16.0465C66.4054 16.0496 66.4048 16.0524 66.4033 16.0555C66.2307 16.3982 56.7628 36.4742 56.1394 37.7566C55.9674 38.1104 55.9584 38.4075 56.1316 38.7762C56.8954 40.4019 62.4747 52.8311 63.4457 54.9776C64.2918 56.8471 66.3441 61.2097 66.3487 61.5716C66.3587 62.362 66.3401 63.153 66.3323 63.9436C66.332 63.9638 66.3159 63.9799 66.2958 63.9799C66.2738 63.9799 66.2542 63.9666 66.2462 63.9461C65.7647 62.7037 56.5279 42.2884 55.7434 40.5515C55.7363 40.5354 44.1646 14.7549 44.0054 14.7471C43.8037 14.7372 25.7716 53.2212 25.7477 53.2773C25.542 53.7566 25.5764 53.8062 26.1025 53.8058C29.0746 53.8049 39.4507 53.7349 39.4677 53.7346C39.9442 53.7321 39.987 53.7804 39.9851 54.2582C39.9829 54.8902 39.9461 54.9401 39.4637 54.9401C32.3405 54.9423 25.2176 54.9435 18.0944 54.946C17.6086 54.9417 17.4159 54.6507 17.5999 54.2635Z" fill="#292929"/>
<path d="M63.5462 38.5016C63.4539 38.2912 63.4511 38.2488 63.5512 38.0214C64.4283 36.0289 66.2749 31.9634 66.3229 31.8574C66.3229 36.1556 66.3229 40.4414 66.3229 44.7272C66.3003 44.7331 64.2644 40.139 63.5462 38.5016Z" fill="#292929"/>
<path d="M5.70836 61.6448C4.77269 59.5693 3.53432 56.8221 3.47173 56.683C3.46368 56.665 3.45779 56.6439 3.43301 56.6445C3.40915 56.6452 3.40233 56.6647 3.39366 56.683C3.29823 56.8865 0.126864 63.6196 0.0100599 63.8328C0.0100599 63.8328 0.0100599 63.8328 0.0100599 63.8331C-0.0168948 63.8898 0.0112985 63.9326 0.0828681 63.9335C0.414691 63.9335 0.754569 63.9332 1.08608 63.9332C1.1183 63.8647 3.85778 58.0292 3.88752 58.0307C3.9027 58.0313 4.84271 60.1106 5.62037 61.8357C5.64826 61.7706 5.67769 61.7071 5.70836 61.6448Z" fill="#292929"/>
<path d="M5.6644 61.9334C6.4684 60.2269 7.48803 58.0702 7.506 58.0711C7.52955 58.0723 9.78601 63.0906 10.1965 64.0027H10.3716C10.3679 63.9943 10.3641 63.9863 10.3607 63.9788C10.2182 63.6638 7.18905 56.9436 7.09022 56.724C7.08216 56.706 7.07628 56.6849 7.05149 56.6856C7.02764 56.6862 7.02082 56.7057 7.01214 56.724C6.9604 56.8343 6.00707 58.8587 5.125 60.726" fill="#292929"/>
<path d="M15.0906 58.0711C15.1142 58.0723 17.3706 63.0906 17.7812 64.0027H17.9562C17.9525 63.9943 17.9488 63.9863 17.9454 63.9788C17.8029 63.6638 14.7737 56.9436 14.6749 56.724C14.6668 56.706 14.6609 56.6849 14.6361 56.6856C14.6123 56.6862 14.6055 56.7057 14.5968 56.724C14.5014 56.9275 11.33 63.6607 11.2132 63.8738C11.2132 63.8738 11.2132 63.8738 11.2132 63.8741C11.1862 63.9311 11.2144 63.9736 11.286 63.9745C11.6178 63.9745 11.9577 63.9742 12.2892 63.9742C12.3217 63.9051 15.0612 58.0695 15.0906 58.0711Z" fill="#292929"/>
<path d="M12.3485 61.7571C12.3141 61.8104 12.2787 61.8634 12.2422 61.9154C13.4561 61.9148 14.59 61.9151 14.9937 61.9154C14.9937 61.9154 14.9941 61.7683 14.9941 61.7559C14.8614 61.7559 13.747 61.7565 12.3485 61.7571Z" fill="#292929"/>
<path d="M22.7703 58.0477C22.7939 58.0489 25.0503 63.0671 25.4609 63.9793H25.6359C25.6322 63.9709 25.6285 63.9628 25.6251 63.9554C25.4825 63.6403 22.4534 56.9202 22.3545 56.7005C22.3465 56.6826 22.3406 56.6615 22.3158 56.6621C22.292 56.6627 22.2851 56.6823 22.2765 56.7005C22.181 56.9041 19.0097 63.6372 18.8929 63.8504C18.8929 63.8504 18.8929 63.8504 18.8929 63.8507C18.8659 63.9074 18.8941 63.9501 18.9657 63.9511C19.2975 63.9511 19.6374 63.9508 19.9689 63.9508C20.0011 63.8817 22.7406 58.0461 22.7703 58.0477Z" fill="#292929"/>
<path d="M28.1031 63.5216C27.5953 63.2316 27.1972 62.8189 26.9091 62.2832C26.6206 61.7475 26.4766 61.1226 26.4766 60.4085C26.4766 59.6714 26.633 59.0186 26.9459 58.4504C27.2589 57.8821 27.6954 57.4406 28.2556 57.1262C28.8157 56.8117 29.4577 56.6543 30.1818 56.6543C30.601 56.6543 30.9941 56.72 31.361 56.8507C31.7278 56.9818 32.0472 57.1571 32.3192 57.3765L32.2405 57.4747C31.949 57.2389 31.6451 57.0651 31.329 56.9539C31.0127 56.8427 30.6549 56.7869 30.2555 56.7869C29.7477 56.7869 29.3102 56.9409 28.9434 57.2489C28.5766 57.5568 28.298 57.9735 28.1081 58.4993C27.9182 59.0251 27.8231 59.6091 27.8231 60.2511C27.8231 60.9228 27.9247 61.5223 28.1276 62.0496C28.3306 62.5772 28.624 62.9899 29.0072 63.288C29.3905 63.586 29.8425 63.735 30.3633 63.735C30.8188 63.735 31.2355 63.6269 31.6138 63.4107C31.9921 63.1944 32.2976 62.9044 32.5302 62.541L32.6284 62.5998C32.34 63.0553 31.9676 63.3952 31.5106 63.6195C31.0536 63.8438 30.4894 63.9559 29.8177 63.9559C29.1826 63.9566 28.6109 63.8116 28.1031 63.5216Z" fill="#292929"/>
<path d="M35.6304 63.9524L34.3359 63.9574V56.6523H35.6304V62.1654L38.7931 58.1042V56.6523H40.0875V63.9574H38.7931V58.3173L35.6304 62.3785V63.9524Z" fill="#292929"/>
<path d="M35.5117 62.5182C35.6532 62.337 37.7068 59.7137 39.1124 57.918C39.0387 57.9223 38.9653 57.9279 38.8922 57.9344C37.9162 59.1932 35.8785 61.7914 35.4141 62.3838L35.4955 62.5387C35.5011 62.5319 35.5064 62.5251 35.5117 62.5182Z" fill="#292929"/>
<path d="M41.8594 63.9553V56.6465H46.4609V56.7735H43.1544V60.1206H44.2769C44.9304 60.1206 45.4747 60.2011 45.9097 60.3619C46.3447 60.5227 46.6672 60.7455 46.8773 61.0299C47.0871 61.3143 47.1921 61.6412 47.1921 62.0102C47.1921 62.6806 46.9464 63.1723 46.4556 63.4856C45.9646 63.7988 45.2231 63.9553 44.2311 63.9553H41.8594ZM44.2364 63.8282C44.7779 63.8013 45.1767 63.6293 45.4326 63.3127C45.6882 62.996 45.8161 62.5889 45.8161 62.091C45.8161 60.862 45.2287 60.2473 44.0539 60.2473H43.1548V63.8279H44.2364V63.8282Z" fill="#292929"/>
<path d="M46.6087 56.6448C44.9709 56.647 42.9657 56.6452 42.4 56.6445L42.3281 56.8041C42.3371 56.8041 42.3461 56.8041 42.3545 56.8041C42.5351 56.8038 44.6134 56.8041 46.609 56.8044C46.6087 56.7499 46.6084 56.7198 46.6087 56.6448Z" fill="#292929"/>
</svg>
