<svg width="291" height="144" viewBox="0 0 291 144" fill="none" xmlns="http://www.w3.org/2000/svg">
<rect y="98.4102" width="116" height="40" rx="20" fill="#FF6752"/>
<path d="M17.888 124.41V113.21H26.08V114.218H19.056V117.882H22.72C24.0427 117.882 25.0453 118.154 25.728 118.698C26.4213 119.231 26.768 120.021 26.768 121.066C26.768 122.143 26.3947 122.97 25.648 123.546C24.912 124.122 23.8507 124.41 22.464 124.41H17.888ZM19.056 123.466H22.448C23.4827 123.466 24.2613 123.269 24.784 122.874C25.3173 122.469 25.584 121.882 25.584 121.114C25.584 119.589 24.5387 118.826 22.448 118.826H19.056V123.466ZM33.5614 124.49C32.836 124.49 32.18 124.325 31.5934 123.994C31.0067 123.653 30.5374 123.167 30.1854 122.538C29.844 121.898 29.6734 121.119 29.6734 120.202C29.6734 119.285 29.844 118.511 30.1854 117.882C30.5267 117.242 30.9907 116.757 31.5774 116.426C32.164 116.095 32.8254 115.93 33.5614 115.93C34.3614 115.93 35.076 116.111 35.7054 116.474C36.3454 116.826 36.8467 117.327 37.2094 117.978C37.572 118.618 37.7534 119.359 37.7534 120.202C37.7534 121.055 37.572 121.802 37.2094 122.442C36.8467 123.082 36.3454 123.583 35.7054 123.946C35.076 124.309 34.3614 124.49 33.5614 124.49ZM29.2254 127.514V116.01H30.3134V118.538L30.2014 120.218L30.3614 121.914V127.514H29.2254ZM33.4814 123.482C34.0787 123.482 34.612 123.349 35.0814 123.082C35.5507 122.805 35.924 122.421 36.2014 121.93C36.4787 121.429 36.6174 120.853 36.6174 120.202C36.6174 119.551 36.4787 118.981 36.2014 118.49C35.924 117.999 35.5507 117.615 35.0814 117.338C34.612 117.061 34.0787 116.922 33.4814 116.922C32.884 116.922 32.3454 117.061 31.8654 117.338C31.396 117.615 31.0227 117.999 30.7454 118.49C30.4787 118.981 30.3454 119.551 30.3454 120.202C30.3454 120.853 30.4787 121.429 30.7454 121.93C31.0227 122.421 31.396 122.805 31.8654 123.082C32.3454 123.349 32.884 123.482 33.4814 123.482ZM43.7941 124.49C42.9195 124.49 42.1515 124.309 41.4901 123.946C40.8288 123.573 40.3115 123.066 39.9381 122.426C39.5648 121.775 39.3781 121.034 39.3781 120.202C39.3781 119.37 39.5541 118.634 39.9061 117.994C40.2688 117.354 40.7595 116.853 41.3781 116.49C42.0075 116.117 42.7115 115.93 43.4901 115.93C44.2795 115.93 44.9781 116.111 45.5861 116.474C46.2048 116.826 46.6901 117.327 47.0421 117.978C47.3941 118.618 47.5701 119.359 47.5701 120.202C47.5701 120.255 47.5648 120.314 47.5541 120.378C47.5541 120.431 47.5541 120.49 47.5541 120.554H40.2421V119.706H46.9461L46.4981 120.042C46.4981 119.434 46.3648 118.895 46.0981 118.426C45.8421 117.946 45.4901 117.573 45.0421 117.306C44.5941 117.039 44.0768 116.906 43.4901 116.906C42.9141 116.906 42.3968 117.039 41.9381 117.306C41.4795 117.573 41.1221 117.946 40.8661 118.426C40.6101 118.906 40.4821 119.455 40.4821 120.074V120.25C40.4821 120.89 40.6208 121.455 40.8981 121.946C41.1861 122.426 41.5808 122.805 42.0821 123.082C42.5941 123.349 43.1755 123.482 43.8261 123.482C44.3381 123.482 44.8128 123.391 45.2501 123.21C45.6981 123.029 46.0821 122.751 46.4021 122.378L47.0421 123.114C46.6688 123.562 46.1995 123.903 45.6341 124.138C45.0795 124.373 44.4661 124.49 43.7941 124.49ZM50.0848 124.41V116.01H51.2208V122.682L56.8368 116.01H57.8448V124.41H56.7088V117.722L51.1088 124.41H50.0848ZM53.8928 114.794C53.1888 114.794 52.6181 114.618 52.1808 114.266C51.7541 113.903 51.5301 113.386 51.5088 112.714H52.3248C52.3354 113.141 52.4848 113.477 52.7728 113.722C53.0608 113.967 53.4341 114.09 53.8928 114.09C54.3514 114.09 54.7248 113.967 55.0128 113.722C55.3114 113.477 55.4661 113.141 55.4768 112.714H56.2928C56.2821 113.386 56.0581 113.903 55.6208 114.266C55.1834 114.618 54.6074 114.794 53.8928 114.794ZM66.8604 123.866V117.002H62.8124L62.7164 118.874C62.695 119.439 62.6577 119.994 62.6044 120.538C62.5617 121.082 62.4817 121.583 62.3644 122.042C62.2577 122.49 62.103 122.858 61.9004 123.146C61.6977 123.423 61.4364 123.583 61.1164 123.626L59.9804 123.418C60.311 123.429 60.583 123.311 60.7964 123.066C61.0097 122.81 61.175 122.463 61.2924 122.026C61.4097 121.589 61.495 121.093 61.5484 120.538C61.6017 119.973 61.6444 119.397 61.6764 118.81L61.7884 116.01H67.9964V123.866H66.8604ZM59.6284 126.442V123.418H69.3084V126.442H68.2364V124.41H60.7004V126.442H59.6284ZM71.5223 124.41V116.01H72.6583V122.682L78.2743 116.01H79.2823V124.41H78.1463V117.722L72.5463 124.41H71.5223ZM82.5379 124.41V116.01H83.6739V119.722H88.9699V116.01H90.1059V124.41H88.9699V120.698H83.6739V124.41H82.5379ZM93.3348 124.41V116.01H99.2868V117.002H94.1828L94.4708 116.714V124.41H93.3348Z" fill="white"/>
<rect x="54" y="70.3379" width="117" height="40" rx="20" transform="rotate(-29.115 54 70.3379)" fill="#FF6752"/>
<path d="M86.6025 82.0506C85.8663 82.4606 85.1185 82.7183 84.3592 82.8238C83.5947 82.9199 82.8596 82.8714 82.1539 82.6784C81.4481 82.4854 80.7961 82.1587 80.1978 81.6983C79.6089 81.2327 79.1146 80.6412 78.7149 79.9236C78.3153 79.2061 78.0726 78.4744 77.9869 77.7285C77.9105 76.9774 77.976 76.2511 78.1835 75.5495C78.4003 74.8427 78.7535 74.1943 79.2429 73.6043C79.7271 73.0049 80.3373 72.5002 81.0735 72.0902C81.7818 71.6958 82.5155 71.4458 83.2748 71.3404C84.029 71.2257 84.7527 71.2865 85.446 71.5231L85.155 72.5459C84.5259 72.3591 83.9198 72.3121 83.3366 72.4049C82.7482 72.4884 82.1744 72.6858 81.6153 72.9972C81.0282 73.3242 80.5401 73.7303 80.1511 74.2156C79.7569 74.6916 79.4772 75.2197 79.312 75.8001C79.1417 76.3711 79.0869 76.9633 79.1476 77.5765C79.2125 78.1753 79.4084 78.7682 79.7354 79.3553C80.0623 79.9424 80.4659 80.4258 80.9459 80.8055C81.4302 81.1707 81.9624 81.4359 82.5428 81.6011C83.118 81.7569 83.7143 81.7972 84.3317 81.722C84.9439 81.6374 85.5435 81.4316 86.1306 81.1047C86.6897 80.7933 87.1597 80.4094 87.5405 79.9532C87.9213 79.4969 88.1978 78.9522 88.3702 78.319L89.3931 78.6101C89.2291 79.3241 88.9024 79.9761 88.4129 80.5661C87.9235 81.1561 87.32 81.651 86.6025 82.0506ZM93.2398 78.2441L89.4874 71.5066L89.887 71.632L86.8537 73.3214L86.371 72.4547L92.9268 68.8036L93.4095 69.6702L90.3762 71.3596L90.4799 70.9538L94.2323 77.6914L93.2398 78.2441ZM102.276 73.3032C101.642 73.6561 100.989 73.8308 100.315 73.8274C99.6367 73.8146 98.9905 73.619 98.3768 73.2404C97.7672 72.8474 97.2392 72.2501 96.7929 71.4487C96.3465 70.6473 96.1193 69.8886 96.1113 69.1727C96.0981 68.4475 96.2674 67.7978 96.619 67.2234C96.9707 66.6491 97.468 66.1829 98.111 65.8247C98.8099 65.4355 99.5225 65.2462 100.249 65.2568C100.979 65.2529 101.661 65.447 102.295 65.839C102.923 66.2217 103.442 66.7811 103.852 67.5173C104.267 68.2628 104.472 69.0034 104.467 69.7389C104.461 70.4745 104.267 71.1565 103.884 71.7847C103.511 72.4078 102.975 72.9139 102.276 73.3032ZM99.9592 78.0548L94.3618 68.0044L95.3123 67.475L96.5423 69.6836L97.2619 71.2058L98.2269 72.6096L100.952 77.5021L99.9592 78.0548ZM101.716 72.4614C102.237 72.1708 102.639 71.7948 102.919 71.3335C103.194 70.8628 103.333 70.3457 103.337 69.7821C103.335 69.2092 103.176 68.6385 102.859 68.07C102.543 67.5016 102.144 67.0705 101.663 66.7768C101.182 66.483 100.669 66.3292 100.124 66.3153C99.579 66.3013 99.0456 66.4397 98.5238 66.7303C98.0019 67.021 97.5988 67.4042 97.3144 67.8801C97.0393 68.3507 96.9 68.8678 96.8964 69.4314C96.9022 69.9899 97.0634 70.5533 97.3799 71.1218C97.6965 71.6902 98.0933 72.1285 98.5702 72.4368C99.0512 72.7305 99.5642 72.8843 100.109 72.8983C100.658 72.8977 101.194 72.7521 101.716 72.4614ZM112.548 67.4909L111.645 65.8694L111.455 65.6272L109.944 62.9154C109.597 62.291 109.152 61.9097 108.611 61.7714C108.08 61.628 107.469 61.7483 106.78 62.1324C106.304 62.3971 105.896 62.728 105.556 63.1251C105.216 63.5223 104.969 63.9344 104.816 64.3614L103.956 63.8697C104.152 63.3452 104.465 62.8538 104.893 62.3954C105.317 61.9277 105.817 61.533 106.395 61.2112C107.345 60.6818 108.209 60.512 108.986 60.7019C109.768 60.8772 110.426 61.4447 110.96 62.4046L113.498 66.9615L112.548 67.4909ZM110.057 68.9699C109.507 69.2761 108.978 69.4548 108.469 69.5061C107.964 69.5429 107.517 69.4626 107.126 69.2651C106.73 69.0583 106.415 68.7453 106.182 68.3259C105.969 67.9438 105.865 67.5497 105.871 67.1436C105.881 66.723 106.039 66.3053 106.345 65.8905C106.656 65.4613 107.16 65.052 107.859 64.6628L110.389 63.2537L110.802 63.9946L108.3 65.3881C107.592 65.7825 107.168 66.1834 107.028 66.5907C106.898 66.9928 106.937 67.3803 107.145 67.753C107.378 68.1724 107.728 68.417 108.194 68.487C108.661 68.5569 109.187 68.4284 109.774 68.1015C110.333 67.7901 110.743 67.397 111.004 66.9222C111.269 66.4329 111.359 65.8941 111.276 65.3057L111.881 65.8661C111.964 66.4544 111.854 67.0228 111.549 67.5712C111.253 68.1144 110.755 68.5806 110.057 68.9699ZM117.538 64.7116L113.786 57.974L114.185 58.0995L111.152 59.7888L110.669 58.9222L117.225 55.271L117.708 56.1377L114.674 57.827L114.778 57.4213L118.531 64.1589L117.538 64.7116ZM125.59 60.3188C124.826 60.7444 124.067 60.9596 123.312 60.9646C122.553 60.9602 121.854 60.7692 121.217 60.3918C120.574 60.005 120.05 59.4481 119.646 58.7213C119.241 57.9944 119.036 57.2657 119.033 56.5353C119.038 55.7997 119.223 55.123 119.587 54.5052C119.955 53.8728 120.479 53.3672 121.159 52.9883C121.849 52.6042 122.548 52.4227 123.255 52.4437C123.967 52.4502 124.635 52.6521 125.259 53.0492C125.878 53.4371 126.392 53.9991 126.802 54.7353C126.828 54.7819 126.852 54.8358 126.874 54.8969C126.9 54.9435 126.929 54.9947 126.96 55.0506L120.572 58.6084L120.159 57.8675L126.016 54.6056L125.788 55.1171C125.492 54.586 125.114 54.1802 124.652 53.9C124.195 53.6052 123.706 53.4503 123.185 53.4353C122.664 53.4203 122.147 53.5555 121.634 53.841C121.131 54.1212 120.744 54.4894 120.473 54.9456C120.202 55.4017 120.072 55.9017 120.081 56.4457C120.091 56.9896 120.247 57.5318 120.548 58.0723L120.633 58.226C120.945 58.7852 121.341 59.2116 121.822 59.5053C122.307 59.7845 122.836 59.9233 123.409 59.9217C123.986 59.9055 124.559 59.7392 125.127 59.4226C125.575 59.1735 125.945 58.8633 126.239 58.4921C126.542 58.1157 126.743 57.6865 126.841 57.2047L127.758 57.5363C127.65 58.1093 127.406 58.6359 127.026 59.116C126.656 59.5909 126.177 59.9918 125.59 60.3188ZM131.047 57.1881L126.96 49.8495L132.16 46.9535L132.642 47.8201L128.183 50.3035L128.295 49.9118L132.039 56.6354L131.047 57.1881ZM137.681 53.4933L133.594 46.1546L134.586 45.6019L137.833 51.4309L139.493 42.8694L140.373 42.3789L144.461 49.7175L143.468 50.2703L140.214 44.4273L138.576 52.995L137.681 53.4933ZM152.043 45.4943L150.572 42.8524L150.871 42.9609L148.382 44.3466C147.441 44.8708 146.591 45.0758 145.831 44.9616C145.072 44.8474 144.474 44.3989 144.038 43.6161C143.571 42.7774 143.507 41.9948 143.848 41.2682C144.182 40.5322 144.825 39.8996 145.776 39.3702L148.865 37.6497L152.952 44.9883L152.043 45.4943ZM146.676 48.4838L147.116 44.5391L148.15 43.963L147.752 47.8843L146.676 48.4838ZM150.409 42.5589L148.276 38.7288L148.621 38.9212L146.286 40.2213C145.606 40.6001 145.148 41.0264 144.911 41.5002C144.683 41.9687 144.733 42.4965 145.06 43.0836C145.667 44.1739 146.665 44.3324 148.054 43.5591L150.458 42.2201L150.409 42.5589Z" fill="white"/>
<rect x="192.484" width="104" height="40" rx="20" transform="rotate(18.7213 192.484 0)" fill="#FF6752"/>
<path d="M201.081 30.3658L204.676 19.7584L208.646 21.1039C209.545 21.4086 210.268 21.817 210.815 22.3291C211.366 22.831 211.721 23.413 211.879 24.0749C212.052 24.7302 212.007 25.4417 211.747 26.2094C211.494 26.957 211.098 27.5436 210.56 27.9693C210.035 28.3884 209.399 28.6348 208.653 28.7087C207.908 28.7825 207.085 28.6671 206.186 28.3624L202.837 27.2275L203.517 26.8666L202.202 30.7458L201.081 30.3658ZM203.486 26.9575L203.171 26.2425L206.49 27.3671C207.55 27.7266 208.43 27.7715 209.13 27.5018C209.843 27.2254 210.342 26.6679 210.626 25.8294C210.914 24.9808 210.858 24.23 210.46 23.577C210.072 22.9274 209.348 22.4229 208.287 22.0634L204.968 20.9388L205.648 20.5779L203.486 26.9575ZM214.758 35.0855C213.93 34.8048 213.261 34.3865 212.751 33.8308C212.244 33.2649 211.917 32.619 211.769 31.8931C211.624 31.157 211.685 30.395 211.952 29.607C212.219 28.819 212.622 28.1784 213.161 27.6853C213.71 27.1955 214.336 26.8782 215.038 26.7333C215.754 26.5817 216.48 26.6309 217.218 26.8808C217.965 27.1342 218.569 27.5302 219.028 28.0688C219.501 28.6007 219.8 29.2313 219.925 29.9605C220.053 30.6797 219.981 31.4383 219.711 32.2363C219.694 32.2868 219.67 32.3407 219.639 32.3979C219.622 32.4484 219.603 32.504 219.583 32.5646L212.658 30.2177L212.93 29.4145L219.279 31.5663L218.747 31.7407C218.942 31.1649 218.989 30.6119 218.887 30.0818C218.798 29.5451 218.585 29.0785 218.246 28.6822C217.907 28.2858 217.46 27.9935 216.905 27.8052C216.359 27.6203 215.826 27.5805 215.306 27.6859C214.786 27.7912 214.328 28.0301 213.932 28.4026C213.535 28.775 213.238 29.2542 213.039 29.8401L212.982 30.0068C212.777 30.6129 212.727 31.1929 212.832 31.7466C212.951 32.2936 213.203 32.7789 213.589 33.2025C213.988 33.6194 214.496 33.9323 215.112 34.1411C215.597 34.3054 216.076 34.3719 216.548 34.3405C217.031 34.3126 217.483 34.1732 217.906 33.9223L218.276 34.8248C217.779 35.1293 217.225 35.3019 216.614 35.3427C216.013 35.3869 215.395 35.3012 214.758 35.0855ZM226.576 39.0059L224.638 33.9568L225.712 33.7294L227.849 39.4373L226.576 39.0059ZM220.742 37.0288L223.438 29.0732L224.514 29.4379L221.818 37.3934L220.742 37.0288ZM222.686 33.7345L222.999 32.8102L225.56 33.6781L225.247 34.6024L222.686 33.7345ZM225.597 34.3664L224.648 33.8759L229.151 31.0093L230.318 31.4047L225.597 34.3664ZM228.097 39.5046L228.486 38.6059C228.554 38.64 228.614 38.6774 228.668 38.7182C228.735 38.7522 228.794 38.7778 228.845 38.7949C229.168 38.9045 229.466 38.8706 229.741 38.6932C230.025 38.5192 230.286 38.2473 230.524 37.8774C230.762 37.5075 230.987 37.0769 231.198 36.5855C231.413 36.084 231.623 35.5807 231.828 35.0758L232.925 32.2883L238.759 34.2654L236.063 42.221L234.987 41.8564L237.472 34.5221L237.637 34.9328L233.303 33.464L233.674 33.218L232.772 35.4802C232.509 36.1569 232.231 36.7947 231.938 37.3937C231.655 37.996 231.352 38.5073 231.03 38.9273C230.717 39.3507 230.378 39.6526 230.013 39.833C229.651 40.0032 229.258 40.0164 228.834 39.8726C228.713 39.8315 228.59 39.7786 228.465 39.7139C228.351 39.6526 228.228 39.5829 228.097 39.5046ZM244.061 44.9317L244.657 43.1739L244.709 42.8706L245.705 39.9308C245.935 39.2539 245.919 38.6686 245.659 38.1748C245.408 37.6845 244.909 37.3126 244.161 37.0593C243.646 36.8847 243.127 36.8045 242.604 36.8187C242.081 36.833 241.61 36.9268 241.191 37.1001L240.978 36.1326C241.499 35.9261 242.073 35.8278 242.7 35.8376C243.331 35.8374 243.959 35.9434 244.586 36.1557C245.616 36.5049 246.322 37.0313 246.703 37.7348C247.098 38.4316 247.119 39.3003 246.766 40.3409L245.092 45.2809L244.061 44.9317ZM241.293 44.0779C240.697 43.8759 240.209 43.6036 239.83 43.2611C239.464 42.9118 239.223 42.5261 239.107 42.1038C238.994 41.6715 239.015 41.228 239.169 40.7734C239.309 40.3593 239.532 40.018 239.837 39.7497C240.155 39.4747 240.571 39.3115 241.084 39.26C241.611 39.202 242.253 39.3013 243.01 39.5581L245.753 40.4876L245.481 41.2907L242.769 40.3715C242.001 40.1113 241.419 40.0662 241.024 40.2363C240.638 40.4097 240.377 40.6985 240.24 41.1026C240.086 41.5572 240.14 41.9808 240.401 42.3734C240.662 42.766 241.111 43.0701 241.747 43.2858C242.353 43.4912 242.92 43.5312 243.447 43.4056C243.987 43.2734 244.447 42.9789 244.827 42.522L244.818 43.3467C244.438 43.8036 243.942 44.103 243.331 44.245C242.73 44.3904 242.051 44.3347 241.293 44.0779ZM247.956 46.2515L250.652 38.296L251.743 38.6657L253.28 45.9948L252.825 45.8407L258.562 40.9767L259.562 41.3156L256.866 49.2712L255.881 48.9374L258.161 42.2092L258.327 42.3669L252.982 46.8737L252.497 46.7094L250.983 39.8105L251.226 39.842L248.941 46.5853L247.956 46.2515ZM264.868 51.9829L265.463 50.2251L265.516 49.9217L266.512 46.982C266.741 46.3051 266.726 45.7198 266.465 45.226C266.214 44.7357 265.715 44.3638 264.968 44.1105C264.453 43.9359 263.933 43.8557 263.411 43.8699C262.888 43.8842 262.417 43.978 261.998 44.1513L261.785 43.1838C262.305 42.9773 262.879 42.8789 263.507 42.8888C264.137 42.8886 264.766 42.9946 265.392 43.2069C266.423 43.5561 267.128 44.0825 267.509 44.786C267.904 45.4828 267.925 46.3515 267.572 47.392L265.898 52.3321L264.868 51.9829ZM262.099 51.1291C261.503 50.9271 261.015 50.6548 260.636 50.3123C260.27 49.963 260.029 49.5773 259.913 49.155C259.801 48.7227 259.821 48.2792 259.976 47.8246C260.116 47.4104 260.339 47.0692 260.643 46.8009C260.962 46.5258 261.378 46.3626 261.891 46.3112C262.417 46.2532 263.059 46.3525 263.817 46.6093L266.56 47.5388L266.287 48.3419L263.575 47.4227C262.807 47.1625 262.226 47.1174 261.83 47.2875C261.445 47.4609 261.183 47.7497 261.047 48.1538C260.892 48.6084 260.946 49.032 261.207 49.4246C261.468 49.8172 261.917 50.1213 262.554 50.337C263.16 50.5424 263.726 50.5824 264.253 50.4568C264.793 50.3246 265.254 50.0301 265.634 49.5732L265.624 50.3979C265.244 50.8547 264.749 51.1542 264.137 51.2962C263.536 51.4416 262.857 51.3859 262.099 51.1291Z" fill="white"/>
<rect x="111" y="106.068" width="154" height="40" rx="20" transform="rotate(-18.8116 111 106.068)" fill="#FF6752"/>
<path d="M136.316 124.911L132.705 114.31L133.81 113.933L136.803 122.717L140.596 111.622L141.61 111.276L145.222 121.878L144.116 122.254L141.129 113.485L137.331 124.566L136.316 124.911ZM151.9 119.687C151.112 119.956 150.347 120.025 149.604 119.895C148.868 119.751 148.22 119.437 147.66 118.951C147.097 118.456 146.681 117.814 146.413 117.027C146.141 116.229 146.079 115.467 146.226 114.741C146.373 114.015 146.696 113.375 147.195 112.822C147.704 112.265 148.352 111.853 149.14 111.585C149.816 111.354 150.472 111.277 151.106 111.354C151.741 111.431 152.304 111.678 152.796 112.097L152.179 112.916C151.769 112.605 151.329 112.422 150.86 112.368C150.391 112.313 149.919 112.367 149.444 112.529C148.879 112.721 148.414 113.026 148.049 113.444C147.68 113.851 147.444 114.331 147.34 114.885C147.235 115.439 147.29 116.029 147.503 116.655C147.716 117.281 148.033 117.782 148.454 118.157C148.875 118.532 149.357 118.773 149.901 118.881C150.441 118.978 150.994 118.931 151.56 118.738C152.034 118.577 152.441 118.331 152.779 118.002C153.118 117.672 153.356 117.264 153.495 116.778L154.483 117.049C154.346 117.671 154.051 118.211 153.598 118.669C153.142 119.118 152.576 119.457 151.9 119.687ZM160.301 116.826C159.513 117.094 158.748 117.163 158.005 117.033C157.269 116.889 156.621 116.575 156.061 116.089C155.498 115.594 155.082 114.952 154.814 114.165C154.542 113.367 154.48 112.605 154.627 111.879C154.774 111.153 155.097 110.513 155.596 109.96C156.105 109.403 156.753 108.991 157.54 108.723C158.217 108.492 158.873 108.416 159.507 108.492C160.142 108.569 160.705 108.817 161.197 109.235L160.58 110.054C160.17 109.743 159.73 109.56 159.261 109.506C158.792 109.452 158.32 109.505 157.845 109.667C157.28 109.86 156.815 110.165 156.45 110.582C156.081 110.989 155.845 111.47 155.741 112.023C155.636 112.577 155.691 113.167 155.904 113.793C156.117 114.419 156.434 114.92 156.855 115.295C157.276 115.67 157.758 115.911 158.302 116.019C158.842 116.117 159.395 116.069 159.961 115.877C160.435 115.715 160.842 115.469 161.18 115.14C161.519 114.811 161.757 114.402 161.896 113.916L162.884 114.188C162.746 114.809 162.452 115.349 161.999 115.808C161.543 116.256 160.977 116.595 160.301 116.826ZM163.737 115.554L163.498 114.604C163.572 114.59 163.643 114.583 163.71 114.582C163.784 114.568 163.847 114.553 163.897 114.536C164.22 114.425 164.436 114.217 164.546 113.909C164.665 113.598 164.706 113.223 164.67 112.785C164.633 112.347 164.549 111.868 164.418 111.35C164.283 110.821 164.142 110.294 163.997 109.769L163.169 106.89L169 104.904L171.708 112.855L170.633 113.221L168.136 105.891L168.517 106.116L164.185 107.592L164.329 107.171L164.992 109.514C165.196 110.211 165.364 110.886 165.497 111.54C165.639 112.19 165.71 112.78 165.711 113.309C165.721 113.835 165.636 114.281 165.456 114.647C165.273 115.002 164.969 115.252 164.545 115.396C164.424 115.438 164.295 115.471 164.156 115.495C164.028 115.516 163.889 115.536 163.737 115.554ZM178.199 110.729C177.371 111.011 176.585 111.087 175.842 110.957C175.096 110.816 174.443 110.504 173.883 110.018C173.32 109.523 172.904 108.881 172.636 108.094C172.368 107.306 172.297 106.553 172.424 105.833C172.561 105.11 172.864 104.478 173.332 103.935C173.808 103.379 174.414 102.975 175.151 102.724C175.898 102.469 176.618 102.416 177.31 102.563C178.009 102.697 178.63 103.015 179.173 103.517C179.713 104.009 180.119 104.654 180.39 105.452C180.408 105.502 180.422 105.56 180.432 105.624C180.449 105.674 180.468 105.73 180.489 105.79L173.567 108.148L173.294 107.345L179.64 105.184L179.324 105.646C179.128 105.071 178.828 104.604 178.424 104.245C178.027 103.874 177.574 103.634 177.064 103.526C176.554 103.418 176.021 103.458 175.466 103.648C174.92 103.833 174.474 104.126 174.125 104.527C173.777 104.927 173.559 105.396 173.472 105.933C173.384 106.469 173.44 107.031 173.64 107.616L173.697 107.783C173.903 108.389 174.216 108.879 174.637 109.254C175.065 109.616 175.56 109.847 176.124 109.948C176.695 110.035 177.288 109.974 177.904 109.764C178.389 109.599 178.809 109.36 179.164 109.047C179.53 108.731 179.804 108.345 179.986 107.888L180.83 108.379C180.621 108.923 180.287 109.398 179.827 109.802C179.378 110.203 178.835 110.512 178.199 110.729ZM189.242 106.307L187.029 99.8101L183.197 101.115L183.71 102.918C183.872 103.46 184.015 103.997 184.14 104.53C184.275 105.058 184.361 105.559 184.398 106.031C184.441 106.489 184.414 106.887 184.315 107.225C184.212 107.553 184.016 107.789 183.727 107.932L182.585 108.102C182.901 108.005 183.121 107.807 183.244 107.506C183.363 107.194 183.408 106.813 183.378 106.361C183.348 105.909 183.269 105.412 183.14 104.87C183.009 104.318 182.863 103.759 182.704 103.193L181.908 100.507L187.784 98.5048L190.317 105.941L189.242 106.307ZM183.227 111.078L182.252 108.215L191.415 105.094L192.39 107.956L191.375 108.302L190.72 106.379L183.586 108.809L184.242 110.732L183.227 111.078ZM197.127 104.28C196.36 104.542 195.61 104.606 194.877 104.472C194.151 104.325 193.508 104.009 192.948 103.524C192.385 103.028 191.969 102.387 191.701 101.599C191.429 100.801 191.367 100.039 191.514 99.3133C191.661 98.5871 191.979 97.9491 192.468 97.3995C192.956 96.8498 193.59 96.4425 194.367 96.1777C195.155 95.9094 195.91 95.8437 196.633 95.9807C197.365 96.1141 198.007 96.4253 198.556 96.9142C199.116 97.3996 199.532 98.0412 199.804 98.8388C200.072 99.6264 200.134 100.388 199.991 101.125C199.854 101.847 199.537 102.49 199.042 103.054C198.543 103.607 197.905 104.016 197.127 104.28ZM196.802 103.326C197.378 103.13 197.845 102.83 198.203 102.427C198.558 102.013 198.782 101.531 198.877 100.98C198.977 100.416 198.923 99.8262 198.713 99.2103C198.5 98.5843 198.183 98.0838 197.762 97.7087C197.351 97.3303 196.881 97.0905 196.351 96.9894C195.817 96.8782 195.268 96.9189 194.702 97.1116C194.137 97.3042 193.677 97.6074 193.322 98.0213C192.963 98.425 192.732 98.9038 192.628 99.4577C192.524 100.012 192.578 100.602 192.791 101.228C193.001 101.843 193.318 102.344 193.742 102.729C194.163 103.104 194.64 103.347 195.174 103.458C195.704 103.56 196.247 103.515 196.802 103.326ZM203.459 102.039L200.75 94.0878L204.264 92.8909C205.162 92.5848 205.928 92.5157 206.56 92.6835C207.201 92.848 207.636 93.2634 207.863 93.9298C208.083 94.576 208.006 95.16 207.632 95.682C207.254 96.1938 206.661 96.5873 205.853 96.8625L205.957 96.4722C206.906 96.1489 207.663 96.0882 208.228 96.2903C208.792 96.4923 209.188 96.9266 209.415 97.593C209.649 98.2795 209.579 98.9007 209.205 99.4563C208.837 99.9985 208.128 100.448 207.078 100.806L203.459 102.039ZM204.215 100.835L206.744 99.9734C207.421 99.743 207.894 99.4633 208.165 99.1343C208.443 98.7918 208.499 98.3782 208.334 97.8935C208.169 97.4089 207.892 97.1088 207.504 96.9933C207.115 96.8778 206.582 96.9353 205.906 97.1657L203.271 98.0634L204.215 100.835ZM202.997 97.2607L205.39 96.4456C206.006 96.2357 206.436 95.9597 206.68 95.6174C206.934 95.2717 206.985 94.8767 206.834 94.4324C206.683 93.9881 206.403 93.7117 205.994 93.6031C205.595 93.491 205.088 93.5399 204.472 93.7497L202.079 94.5649L202.997 97.2607ZM217.61 97.2183L217.012 95.4614L216.869 95.1892L215.868 92.251C215.637 91.5745 215.268 91.1198 214.761 90.8871C214.263 90.6508 213.641 90.66 212.894 90.9145C212.379 91.0899 211.918 91.3426 211.512 91.6724C211.106 92.0023 210.79 92.3636 210.563 92.7564L209.805 92.1188C210.092 91.6379 210.487 91.2103 210.991 90.8359C211.491 90.4515 212.054 90.1526 212.68 89.9394C213.71 89.5885 214.59 89.576 215.321 89.9018C216.058 90.214 216.604 90.8901 216.958 91.9301L218.64 96.8675L217.61 97.2183ZM214.895 98.2279C214.299 98.4308 213.747 98.512 213.237 98.4715C212.734 98.4175 212.308 98.2584 211.959 97.9942C211.606 97.7199 211.352 97.3556 211.198 96.9012C211.057 96.4872 211.025 96.081 211.104 95.6824C211.189 95.2704 211.419 94.8877 211.794 94.5344C212.176 94.1676 212.746 93.8552 213.503 93.5972L216.245 92.6634L216.518 93.4661L213.807 94.3896C213.04 94.651 212.551 94.9696 212.341 95.3454C212.141 95.7178 212.11 96.1059 212.248 96.5098C212.402 96.9641 212.703 97.2674 213.149 97.4197C213.595 97.5719 214.137 97.5397 214.773 97.323C215.378 97.1166 215.852 96.8032 216.193 96.3826C216.541 95.9486 216.727 95.4347 216.75 94.8408L217.245 95.5004C217.222 96.0942 217.011 96.6336 216.613 97.1186C216.225 97.6002 215.652 97.9699 214.895 98.2279ZM221.503 95.8923L218.794 87.941L219.87 87.5747L221.067 91.0884L226.08 89.3807L224.883 85.867L225.958 85.5007L228.667 93.452L227.591 93.8183L226.394 90.3046L221.381 92.0123L222.578 95.526L221.503 95.8923ZM231.723 92.4108L229.014 84.4595L230.09 84.0932L232.241 90.4088L235.406 82.2823L236.36 81.9572L239.069 89.9085L237.993 90.2749L235.837 83.9441L232.692 92.0806L231.723 92.4108ZM245.584 87.7736C244.756 88.0557 243.97 88.1317 243.227 88.0016C242.481 87.8615 241.828 87.5487 241.268 87.0633C240.705 86.5677 240.289 85.9262 240.021 85.1386C239.753 84.3511 239.682 83.5976 239.809 82.8783C239.946 82.1556 240.249 81.5228 240.717 80.98C241.193 80.4237 241.799 80.02 242.536 79.7689C243.283 79.5144 244.003 79.4607 244.695 79.608C245.394 79.7417 246.015 80.0597 246.558 80.5621C247.098 81.0544 247.504 81.6994 247.775 82.4971C247.793 82.5476 247.806 82.6048 247.817 82.6688C247.834 82.7193 247.853 82.7749 247.874 82.8354L240.952 85.1932L240.679 84.3905L247.025 82.2288L246.709 82.6913C246.513 82.1158 246.213 81.6489 245.809 81.2906C245.412 80.9188 244.959 80.6789 244.449 80.5709C243.939 80.463 243.406 80.5036 242.851 80.6928C242.305 80.8785 241.859 81.1715 241.51 81.5718C241.162 81.9722 240.944 82.4408 240.857 82.9777C240.769 83.5146 240.825 84.0759 241.025 84.6615L241.081 84.8281C241.288 85.4339 241.601 85.9243 242.022 86.2993C242.45 86.6608 242.945 86.892 243.509 86.9929C244.08 87.0802 244.673 87.019 245.289 86.8091C245.774 86.6441 246.194 86.4052 246.549 86.0925C246.915 85.7764 247.189 85.39 247.371 84.9335L248.215 85.4238C248.006 85.9682 247.671 86.4427 247.212 86.8471C246.763 87.2481 246.22 87.5569 245.584 87.7736Z" fill="white"/>
<rect x="239.5" y="137.91" width="39" height="39" rx="19.5" transform="rotate(-90 239.5 137.91)" fill="white"/>
<rect x="239.5" y="137.91" width="39" height="39" rx="19.5" transform="rotate(-90 239.5 137.91)" stroke="white"/>
<path d="M254.825 114.569C256.02 113.374 257.342 113.084 258.233 113.056L258.275 109.507C256.147 109.584 254.082 110.39 252.364 112.109C249.875 114.598 249.154 118.176 250.186 121.301L253.842 120.841C252.824 118.791 253.142 116.252 254.825 114.569Z" fill="#F4553F"/>
<path d="M264.979 112.505C264.456 111.981 264.031 111.642 263.543 111.338L257.568 117.313L259.93 119.675L263.437 116.167C263.953 116.825 264.456 118.091 264.201 119.533L267.765 119.081C267.857 116.769 266.916 114.442 264.979 112.505Z" fill="#F4553F"/>
<path d="M256.366 123.352C255.836 123.09 255.334 122.744 254.895 122.305C254.457 121.867 254.111 121.365 253.842 120.841L250.186 121.301C250.617 122.595 251.339 123.811 252.364 124.837C253.389 125.862 254.605 126.583 255.899 127.015L256.366 123.352Z" fill="#F4553F"/>
<path d="M265.092 124.837C266.81 123.118 267.687 121.11 267.765 119.081L264.201 119.533C264.038 120.445 263.579 121.428 262.631 122.376C260.948 124.059 258.41 124.377 256.366 123.352L255.907 127.007C259.032 128.04 262.603 127.326 265.092 124.837Z" fill="#F4553F"/>
<rect x="164" y="39.4102" width="40" height="40" rx="20" fill="white"/>
<path d="M188.084 60.1244L188.597 56.8683H185.437V54.7518C185.437 53.8615 185.878 52.9915 187.289 52.9915H188.746V50.2188C187.897 50.0836 187.04 50.0105 186.181 50C183.58 50 181.883 51.5619 181.883 54.3855V56.8683H179V60.1244H181.883V68H185.437V60.1244H188.084Z" fill="#F4553F"/>
<rect x="18" y="58.4102" width="40" height="40" rx="20" fill="white"/>
<g clip-path="url(#clip0_1_568)">
<path d="M34.4444 70C31.9902 70 30 71.9902 30 74.4444V81.5556C30 84.0098 31.9902 86 34.4444 86H41.5556C44.0098 86 46 84.0098 46 81.5556V74.4444C46 71.9902 44.0098 70 41.5556 70H34.4444ZM43.3333 71.7778C43.824 71.7778 44.2222 72.176 44.2222 72.6667C44.2222 73.1573 43.824 73.5556 43.3333 73.5556C42.8427 73.5556 42.4444 73.1573 42.4444 72.6667C42.4444 72.176 42.8427 71.7778 43.3333 71.7778ZM38 73.5556C40.4542 73.5556 42.4444 75.5458 42.4444 78C42.4444 80.4542 40.4542 82.4444 38 82.4444C35.5458 82.4444 33.5556 80.4542 33.5556 78C33.5556 75.5458 35.5458 73.5556 38 73.5556ZM38 75.3333C37.2928 75.3333 36.6145 75.6143 36.1144 76.1144C35.6143 76.6145 35.3333 77.2928 35.3333 78C35.3333 78.7072 35.6143 79.3855 36.1144 79.8856C36.6145 80.3857 37.2928 80.6667 38 80.6667C38.7072 80.6667 39.3855 80.3857 39.8856 79.8856C40.3857 79.3855 40.6667 78.7072 40.6667 78C40.6667 77.2928 40.3857 76.6145 39.8856 76.1144C39.3855 75.6143 38.7072 75.3333 38 75.3333Z" fill="#F4553F"/>
</g>
<defs>
<clipPath id="clip0_1_568">
<rect width="16" height="16" fill="white" transform="translate(30 70)"/>
</clipPath>
</defs>
</svg>
